<mxfile host="app.diagrams.net" modified="2022-07-05T14:58:50.505Z" agent="5.0 (Macintosh; Intel Mac OS X 10_15_7) AppleWebKit/537.36 (KHTML, like Gecko) Chrome/103.0.0.0 Safari/537.36" etag="Ec79zCegfVvK7NrXoTOc" version="20.0.4" type="github">
  <diagram id="bjVdiDGDuuWrtINF5FNi" name="Page-1">
    <mxGraphModel dx="1426" dy="794" grid="1" gridSize="10" guides="1" tooltips="1" connect="1" arrows="1" fold="1" page="1" pageScale="1" pageWidth="827" pageHeight="1169" math="0" shadow="0">
      <root>
        <mxCell id="0" />
        <mxCell id="1" parent="0" />
        <mxCell id="MJLlHMDSpS5lDLoSnXZj-175" value="" style="rounded=1;whiteSpace=wrap;html=1;fontSize=14;fillColor=#FFFFFF;shadow=0;" parent="1" vertex="1">
          <mxGeometry x="1191" y="432" width="230" height="50" as="geometry" />
        </mxCell>
        <mxCell id="MJLlHMDSpS5lDLoSnXZj-176" value="My Potholes" style="text;html=1;strokeColor=none;fillColor=none;align=center;verticalAlign=middle;whiteSpace=wrap;rounded=0;fontSize=14;shadow=0;" parent="1" vertex="1">
          <mxGeometry x="1232.5" y="442" width="147" height="30" as="geometry" />
        </mxCell>
        <mxCell id="MJLlHMDSpS5lDLoSnXZj-177" value="" style="rounded=1;whiteSpace=wrap;html=1;fontSize=14;fillColor=#FFFFFF;shadow=0;" parent="1" vertex="1">
          <mxGeometry x="1191" y="489" width="230" height="50" as="geometry" />
        </mxCell>
        <mxCell id="MJLlHMDSpS5lDLoSnXZj-178" value="New Pothole" style="text;html=1;strokeColor=none;fillColor=none;align=center;verticalAlign=middle;whiteSpace=wrap;rounded=0;fontSize=14;shadow=0;" parent="1" vertex="1">
          <mxGeometry x="1232.5" y="499" width="147" height="30" as="geometry" />
        </mxCell>
        <mxCell id="cyxGZDUB5pEwBZSpqyzi-4" value="" style="verticalLabelPosition=bottom;verticalAlign=top;html=1;shadow=0;dashed=0;strokeWidth=1;shape=mxgraph.android.phone2;strokeColor=#c0c0c0;flipV=0;fillColor=#030303;" parent="1" vertex="1">
          <mxGeometry x="40" y="40" width="307.69" height="600" as="geometry" />
        </mxCell>
        <mxCell id="cyxGZDUB5pEwBZSpqyzi-10" value="" style="group" parent="1" vertex="1" connectable="0">
          <mxGeometry x="153.8499999999999" y="120" width="86.15000000000009" height="80" as="geometry" />
        </mxCell>
        <mxCell id="cyxGZDUB5pEwBZSpqyzi-7" value="" style="rounded=0;whiteSpace=wrap;html=1;fillColor=#FFFFFF;" parent="cyxGZDUB5pEwBZSpqyzi-10" vertex="1">
          <mxGeometry x="8.526512829121202e-14" width="80" height="80" as="geometry" />
        </mxCell>
        <mxCell id="cyxGZDUB5pEwBZSpqyzi-8" value="" style="endArrow=none;html=1;rounded=0;exitX=0;exitY=1;exitDx=0;exitDy=0;" parent="cyxGZDUB5pEwBZSpqyzi-10" source="cyxGZDUB5pEwBZSpqyzi-7" edge="1">
          <mxGeometry width="50" height="50" relative="1" as="geometry">
            <mxPoint x="30.000000000000085" y="50" as="sourcePoint" />
            <mxPoint x="80.00000000000009" as="targetPoint" />
          </mxGeometry>
        </mxCell>
        <mxCell id="cyxGZDUB5pEwBZSpqyzi-9" value="" style="endArrow=none;html=1;rounded=0;exitX=1;exitY=1;exitDx=0;exitDy=0;" parent="cyxGZDUB5pEwBZSpqyzi-10" source="cyxGZDUB5pEwBZSpqyzi-7" edge="1">
          <mxGeometry width="50" height="50" relative="1" as="geometry">
            <mxPoint x="-80" y="80" as="sourcePoint" />
            <mxPoint as="targetPoint" />
          </mxGeometry>
        </mxCell>
        <mxCell id="MJLlHMDSpS5lDLoSnXZj-43" value="&lt;meta charset=&quot;utf-8&quot;&gt;&lt;span style=&quot;color: rgb(0, 0, 0); font-family: Helvetica; font-size: 14px; font-style: normal; font-variant-ligatures: normal; font-variant-caps: normal; font-weight: 400; letter-spacing: normal; orphans: 2; text-align: center; text-indent: 0px; text-transform: none; widows: 2; word-spacing: 0px; -webkit-text-stroke-width: 0px; background-color: rgb(248, 249, 250); text-decoration-thickness: initial; text-decoration-style: initial; text-decoration-color: initial; float: none; display: inline !important;&quot;&gt;Logo&lt;/span&gt;" style="text;whiteSpace=wrap;html=1;" parent="cyxGZDUB5pEwBZSpqyzi-10" vertex="1">
          <mxGeometry x="26.15" y="50" width="33.85" height="20" as="geometry" />
        </mxCell>
        <mxCell id="cyxGZDUB5pEwBZSpqyzi-15" value="PlotHole" style="text;html=1;strokeColor=none;fillColor=none;align=center;verticalAlign=middle;whiteSpace=wrap;rounded=0;fontSize=14;fontStyle=1" parent="1" vertex="1">
          <mxGeometry x="163.85" y="210" width="60" height="30" as="geometry" />
        </mxCell>
        <mxCell id="cyxGZDUB5pEwBZSpqyzi-16" value="Username" style="text;html=1;strokeColor=none;fillColor=none;align=center;verticalAlign=middle;whiteSpace=wrap;rounded=0;fontSize=14;" parent="1" vertex="1">
          <mxGeometry x="80" y="250" width="60" height="30" as="geometry" />
        </mxCell>
        <mxCell id="cyxGZDUB5pEwBZSpqyzi-17" value="" style="rounded=0;whiteSpace=wrap;html=1;fontSize=14;fillColor=#FFFFFF;" parent="1" vertex="1">
          <mxGeometry x="80" y="280" width="230" height="30" as="geometry" />
        </mxCell>
        <mxCell id="cyxGZDUB5pEwBZSpqyzi-18" value="Password" style="text;html=1;strokeColor=none;fillColor=none;align=center;verticalAlign=middle;whiteSpace=wrap;rounded=0;fontSize=14;" parent="1" vertex="1">
          <mxGeometry x="80" y="310" width="60" height="30" as="geometry" />
        </mxCell>
        <mxCell id="cyxGZDUB5pEwBZSpqyzi-19" value="" style="rounded=0;whiteSpace=wrap;html=1;fontSize=14;fillColor=#FFFFFF;" parent="1" vertex="1">
          <mxGeometry x="80" y="340" width="230" height="30" as="geometry" />
        </mxCell>
        <mxCell id="cyxGZDUB5pEwBZSpqyzi-20" value="" style="rounded=1;whiteSpace=wrap;html=1;fontSize=14;fillColor=#FFFFFF;" parent="1" vertex="1">
          <mxGeometry x="80" y="390" width="110" height="30" as="geometry" />
        </mxCell>
        <mxCell id="cyxGZDUB5pEwBZSpqyzi-21" value="" style="rounded=1;whiteSpace=wrap;html=1;fontSize=14;fillColor=#FFFFFF;" parent="1" vertex="1">
          <mxGeometry x="200" y="390" width="110" height="30" as="geometry" />
        </mxCell>
        <mxCell id="cyxGZDUB5pEwBZSpqyzi-22" value="Sign Up" style="text;html=1;strokeColor=none;fillColor=none;align=center;verticalAlign=middle;whiteSpace=wrap;rounded=0;fontSize=14;" parent="1" vertex="1">
          <mxGeometry x="103.85" y="390" width="60" height="30" as="geometry" />
        </mxCell>
        <mxCell id="cyxGZDUB5pEwBZSpqyzi-23" value="Login" style="text;html=1;strokeColor=none;fillColor=none;align=center;verticalAlign=middle;whiteSpace=wrap;rounded=0;fontSize=14;" parent="1" vertex="1">
          <mxGeometry x="225" y="390" width="60" height="30" as="geometry" />
        </mxCell>
        <mxCell id="cyxGZDUB5pEwBZSpqyzi-24" value="Forgot password? &lt;u&gt;Click here&lt;/u&gt; to reset your accounts password." style="text;html=1;strokeColor=none;fillColor=none;align=center;verticalAlign=middle;whiteSpace=wrap;rounded=0;fontSize=14;" parent="1" vertex="1">
          <mxGeometry x="80" y="430" width="220" height="50" as="geometry" />
        </mxCell>
        <mxCell id="vHhuPsptqi6PCCdE8fra-1" value="" style="verticalLabelPosition=bottom;verticalAlign=top;html=1;shadow=0;dashed=0;strokeWidth=1;shape=mxgraph.android.phone2;strokeColor=#c0c0c0;flipV=0;fillColor=#030303;" parent="1" vertex="1">
          <mxGeometry x="414" y="40" width="307.69" height="600" as="geometry" />
        </mxCell>
        <mxCell id="vHhuPsptqi6PCCdE8fra-3" value="" style="endArrow=none;html=1;rounded=0;fontSize=14;" parent="1" edge="1">
          <mxGeometry width="50" height="50" relative="1" as="geometry">
            <mxPoint x="415" y="548" as="sourcePoint" />
            <mxPoint x="711" y="548" as="targetPoint" />
          </mxGeometry>
        </mxCell>
        <mxCell id="vHhuPsptqi6PCCdE8fra-8" value="" style="group" parent="1" vertex="1" connectable="0">
          <mxGeometry x="475" y="554" width="28" height="28" as="geometry" />
        </mxCell>
        <mxCell id="vHhuPsptqi6PCCdE8fra-9" value="" style="rounded=0;whiteSpace=wrap;html=1;fillColor=#FFFFFF;" parent="vHhuPsptqi6PCCdE8fra-8" vertex="1">
          <mxGeometry x="2.984279490192417e-14" width="27.999999999999968" height="28" as="geometry" />
        </mxCell>
        <mxCell id="vHhuPsptqi6PCCdE8fra-10" value="" style="endArrow=none;html=1;rounded=0;exitX=0;exitY=1;exitDx=0;exitDy=0;" parent="vHhuPsptqi6PCCdE8fra-8" source="vHhuPsptqi6PCCdE8fra-9" edge="1">
          <mxGeometry width="50" height="50" relative="1" as="geometry">
            <mxPoint x="10.500000000000018" y="17.5" as="sourcePoint" />
            <mxPoint x="28" as="targetPoint" />
          </mxGeometry>
        </mxCell>
        <mxCell id="vHhuPsptqi6PCCdE8fra-11" value="" style="endArrow=none;html=1;rounded=0;exitX=1;exitY=1;exitDx=0;exitDy=0;" parent="vHhuPsptqi6PCCdE8fra-8" source="vHhuPsptqi6PCCdE8fra-9" edge="1">
          <mxGeometry width="50" height="50" relative="1" as="geometry">
            <mxPoint x="-27.999999999999968" y="28" as="sourcePoint" />
            <mxPoint as="targetPoint" />
          </mxGeometry>
        </mxCell>
        <mxCell id="vHhuPsptqi6PCCdE8fra-12" value="" style="group" parent="1" vertex="1" connectable="0">
          <mxGeometry x="526" y="554" width="28" height="28" as="geometry" />
        </mxCell>
        <mxCell id="vHhuPsptqi6PCCdE8fra-13" value="" style="rounded=0;whiteSpace=wrap;html=1;fillColor=#FFFFFF;" parent="vHhuPsptqi6PCCdE8fra-12" vertex="1">
          <mxGeometry x="2.984279490192417e-14" width="27.999999999999968" height="28" as="geometry" />
        </mxCell>
        <mxCell id="vHhuPsptqi6PCCdE8fra-14" value="" style="endArrow=none;html=1;rounded=0;exitX=0;exitY=1;exitDx=0;exitDy=0;" parent="vHhuPsptqi6PCCdE8fra-12" source="vHhuPsptqi6PCCdE8fra-13" edge="1">
          <mxGeometry width="50" height="50" relative="1" as="geometry">
            <mxPoint x="10.500000000000018" y="17.5" as="sourcePoint" />
            <mxPoint x="28" as="targetPoint" />
          </mxGeometry>
        </mxCell>
        <mxCell id="vHhuPsptqi6PCCdE8fra-15" value="" style="endArrow=none;html=1;rounded=0;exitX=1;exitY=1;exitDx=0;exitDy=0;" parent="vHhuPsptqi6PCCdE8fra-12" source="vHhuPsptqi6PCCdE8fra-13" edge="1">
          <mxGeometry width="50" height="50" relative="1" as="geometry">
            <mxPoint x="-27.999999999999968" y="28" as="sourcePoint" />
            <mxPoint as="targetPoint" />
          </mxGeometry>
        </mxCell>
        <mxCell id="vHhuPsptqi6PCCdE8fra-16" value="" style="group" parent="1" vertex="1" connectable="0">
          <mxGeometry x="576" y="554" width="28" height="28" as="geometry" />
        </mxCell>
        <mxCell id="vHhuPsptqi6PCCdE8fra-17" value="" style="rounded=0;whiteSpace=wrap;html=1;fillColor=#FFFFFF;" parent="vHhuPsptqi6PCCdE8fra-16" vertex="1">
          <mxGeometry x="2.984279490192417e-14" width="27.999999999999968" height="28" as="geometry" />
        </mxCell>
        <mxCell id="vHhuPsptqi6PCCdE8fra-18" value="" style="endArrow=none;html=1;rounded=0;exitX=0;exitY=1;exitDx=0;exitDy=0;" parent="vHhuPsptqi6PCCdE8fra-16" source="vHhuPsptqi6PCCdE8fra-17" edge="1">
          <mxGeometry width="50" height="50" relative="1" as="geometry">
            <mxPoint x="10.500000000000018" y="17.5" as="sourcePoint" />
            <mxPoint x="28" as="targetPoint" />
          </mxGeometry>
        </mxCell>
        <mxCell id="vHhuPsptqi6PCCdE8fra-19" value="" style="endArrow=none;html=1;rounded=0;exitX=1;exitY=1;exitDx=0;exitDy=0;" parent="vHhuPsptqi6PCCdE8fra-16" source="vHhuPsptqi6PCCdE8fra-17" edge="1">
          <mxGeometry width="50" height="50" relative="1" as="geometry">
            <mxPoint x="-27.999999999999968" y="28" as="sourcePoint" />
            <mxPoint as="targetPoint" />
          </mxGeometry>
        </mxCell>
        <mxCell id="vHhuPsptqi6PCCdE8fra-20" value="" style="group" parent="1" vertex="1" connectable="0">
          <mxGeometry x="626" y="554" width="28" height="28" as="geometry" />
        </mxCell>
        <mxCell id="vHhuPsptqi6PCCdE8fra-21" value="" style="rounded=0;whiteSpace=wrap;html=1;fillColor=#FFFFFF;" parent="vHhuPsptqi6PCCdE8fra-20" vertex="1">
          <mxGeometry x="2.984279490192417e-14" width="27.999999999999968" height="28" as="geometry" />
        </mxCell>
        <mxCell id="vHhuPsptqi6PCCdE8fra-22" value="" style="endArrow=none;html=1;rounded=0;exitX=0;exitY=1;exitDx=0;exitDy=0;" parent="vHhuPsptqi6PCCdE8fra-20" source="vHhuPsptqi6PCCdE8fra-21" edge="1">
          <mxGeometry width="50" height="50" relative="1" as="geometry">
            <mxPoint x="10.500000000000018" y="17.5" as="sourcePoint" />
            <mxPoint x="28" as="targetPoint" />
          </mxGeometry>
        </mxCell>
        <mxCell id="vHhuPsptqi6PCCdE8fra-23" value="" style="endArrow=none;html=1;rounded=0;exitX=1;exitY=1;exitDx=0;exitDy=0;" parent="vHhuPsptqi6PCCdE8fra-20" source="vHhuPsptqi6PCCdE8fra-21" edge="1">
          <mxGeometry width="50" height="50" relative="1" as="geometry">
            <mxPoint x="-27.999999999999968" y="28" as="sourcePoint" />
            <mxPoint as="targetPoint" />
          </mxGeometry>
        </mxCell>
        <mxCell id="vHhuPsptqi6PCCdE8fra-24" value="" style="endArrow=none;html=1;rounded=0;fontSize=14;" parent="1" edge="1">
          <mxGeometry width="50" height="50" relative="1" as="geometry">
            <mxPoint x="419.9999999999998" y="138" as="sourcePoint" />
            <mxPoint x="716" y="138" as="targetPoint" />
          </mxGeometry>
        </mxCell>
        <mxCell id="vHhuPsptqi6PCCdE8fra-27" value="" style="group" parent="1" vertex="1" connectable="0">
          <mxGeometry x="514" y="103" width="124.29999999999998" height="28" as="geometry" />
        </mxCell>
        <mxCell id="vHhuPsptqi6PCCdE8fra-28" value="" style="rounded=0;whiteSpace=wrap;html=1;fillColor=#FFFFFF;" parent="vHhuPsptqi6PCCdE8fra-27" vertex="1">
          <mxGeometry x="1.1723955140041638e-13" width="109.99999999999987" height="28" as="geometry" />
        </mxCell>
        <mxCell id="vHhuPsptqi6PCCdE8fra-29" value="" style="endArrow=none;html=1;rounded=0;exitX=0;exitY=1;exitDx=0;exitDy=0;" parent="vHhuPsptqi6PCCdE8fra-27" source="vHhuPsptqi6PCCdE8fra-28" edge="1">
          <mxGeometry width="50" height="50" relative="1" as="geometry">
            <mxPoint x="41.25000000000007" y="17.5" as="sourcePoint" />
            <mxPoint x="110" as="targetPoint" />
          </mxGeometry>
        </mxCell>
        <mxCell id="vHhuPsptqi6PCCdE8fra-30" value="" style="endArrow=none;html=1;rounded=0;exitX=1;exitY=1;exitDx=0;exitDy=0;" parent="vHhuPsptqi6PCCdE8fra-27" source="vHhuPsptqi6PCCdE8fra-28" edge="1">
          <mxGeometry width="50" height="50" relative="1" as="geometry">
            <mxPoint x="-109.99999999999987" y="28" as="sourcePoint" />
            <mxPoint as="targetPoint" />
          </mxGeometry>
        </mxCell>
        <mxCell id="MJLlHMDSpS5lDLoSnXZj-32" value="Logo" style="text;html=1;strokeColor=none;fillColor=none;align=center;verticalAlign=middle;whiteSpace=wrap;rounded=0;fontSize=14;" parent="vHhuPsptqi6PCCdE8fra-27" vertex="1">
          <mxGeometry x="55.99999999999998" y="-2" width="57.15" height="30" as="geometry" />
        </mxCell>
        <mxCell id="vHhuPsptqi6PCCdE8fra-33" value="Welcome &amp;lt;username&amp;gt;" style="text;html=1;strokeColor=none;fillColor=none;align=center;verticalAlign=middle;whiteSpace=wrap;rounded=0;fontSize=14;fontStyle=1" parent="1" vertex="1">
          <mxGeometry x="452.85" y="150" width="157.15" height="30" as="geometry" />
        </mxCell>
        <mxCell id="vHhuPsptqi6PCCdE8fra-34" value="" style="rounded=1;whiteSpace=wrap;html=1;fontSize=14;fillColor=#FFFFFF;" parent="1" vertex="1">
          <mxGeometry x="452.85" y="200" width="230" height="50" as="geometry" />
        </mxCell>
        <mxCell id="vHhuPsptqi6PCCdE8fra-35" value="Report new Pothole" style="text;html=1;strokeColor=none;fillColor=none;align=center;verticalAlign=middle;whiteSpace=wrap;rounded=0;fontSize=14;" parent="1" vertex="1">
          <mxGeometry x="494.35" y="210" width="147" height="30" as="geometry" />
        </mxCell>
        <mxCell id="vHhuPsptqi6PCCdE8fra-36" value="" style="rounded=1;whiteSpace=wrap;html=1;fontSize=14;fillColor=#FFFFFF;" parent="1" vertex="1">
          <mxGeometry x="452.85" y="260" width="230" height="50" as="geometry" />
        </mxCell>
        <mxCell id="vHhuPsptqi6PCCdE8fra-37" value="View all Potholes" style="text;html=1;strokeColor=none;fillColor=none;align=center;verticalAlign=middle;whiteSpace=wrap;rounded=0;fontSize=14;" parent="1" vertex="1">
          <mxGeometry x="494.35" y="270" width="147" height="30" as="geometry" />
        </mxCell>
        <mxCell id="vHhuPsptqi6PCCdE8fra-38" value="" style="rounded=1;whiteSpace=wrap;html=1;fontSize=14;fillColor=#FFFFFF;" parent="1" vertex="1">
          <mxGeometry x="452.85" y="320" width="230" height="50" as="geometry" />
        </mxCell>
        <mxCell id="vHhuPsptqi6PCCdE8fra-39" value="My Potholes" style="text;html=1;strokeColor=none;fillColor=none;align=center;verticalAlign=middle;whiteSpace=wrap;rounded=0;fontSize=14;" parent="1" vertex="1">
          <mxGeometry x="494.35" y="330" width="147" height="30" as="geometry" />
        </mxCell>
        <mxCell id="vHhuPsptqi6PCCdE8fra-42" value="Login Screen" style="text;html=1;strokeColor=none;fillColor=none;align=center;verticalAlign=middle;whiteSpace=wrap;rounded=0;fontSize=14;" parent="1" vertex="1">
          <mxGeometry x="40" y="10" width="100" height="30" as="geometry" />
        </mxCell>
        <mxCell id="vHhuPsptqi6PCCdE8fra-43" value="Home Screen" style="text;html=1;strokeColor=none;fillColor=none;align=center;verticalAlign=middle;whiteSpace=wrap;rounded=0;fontSize=14;" parent="1" vertex="1">
          <mxGeometry x="414" y="10" width="100" height="30" as="geometry" />
        </mxCell>
        <mxCell id="MJLlHMDSpS5lDLoSnXZj-1" value="" style="verticalLabelPosition=bottom;verticalAlign=top;html=1;shadow=0;dashed=0;strokeWidth=1;shape=mxgraph.android.phone2;strokeColor=#c0c0c0;flipV=0;fillColor=#030303;" parent="1" vertex="1">
          <mxGeometry x="790" y="40" width="307.69" height="600" as="geometry" />
        </mxCell>
        <mxCell id="MJLlHMDSpS5lDLoSnXZj-19" value="" style="endArrow=none;html=1;rounded=0;fontSize=14;" parent="1" edge="1">
          <mxGeometry width="50" height="50" relative="1" as="geometry">
            <mxPoint x="795.9999999999998" y="138" as="sourcePoint" />
            <mxPoint x="1092" y="138" as="targetPoint" />
          </mxGeometry>
        </mxCell>
        <mxCell id="MJLlHMDSpS5lDLoSnXZj-20" value="" style="group" parent="1" vertex="1" connectable="0">
          <mxGeometry x="888.85" y="102" width="118.29999999999998" height="30" as="geometry" />
        </mxCell>
        <mxCell id="MJLlHMDSpS5lDLoSnXZj-21" value="" style="rounded=0;whiteSpace=wrap;html=1;fillColor=#FFFFFF;" parent="MJLlHMDSpS5lDLoSnXZj-20" vertex="1">
          <mxGeometry x="1.1723955140041638e-13" width="109.99999999999987" height="28" as="geometry" />
        </mxCell>
        <mxCell id="MJLlHMDSpS5lDLoSnXZj-22" value="" style="endArrow=none;html=1;rounded=0;exitX=0;exitY=1;exitDx=0;exitDy=0;" parent="MJLlHMDSpS5lDLoSnXZj-20" source="MJLlHMDSpS5lDLoSnXZj-21" edge="1">
          <mxGeometry width="50" height="50" relative="1" as="geometry">
            <mxPoint x="41.25000000000007" y="17.5" as="sourcePoint" />
            <mxPoint x="110" as="targetPoint" />
          </mxGeometry>
        </mxCell>
        <mxCell id="MJLlHMDSpS5lDLoSnXZj-23" value="" style="endArrow=none;html=1;rounded=0;exitX=1;exitY=1;exitDx=0;exitDy=0;" parent="MJLlHMDSpS5lDLoSnXZj-20" source="MJLlHMDSpS5lDLoSnXZj-21" edge="1">
          <mxGeometry width="50" height="50" relative="1" as="geometry">
            <mxPoint x="-109.99999999999987" y="28" as="sourcePoint" />
            <mxPoint as="targetPoint" />
          </mxGeometry>
        </mxCell>
        <mxCell id="MJLlHMDSpS5lDLoSnXZj-33" value="Logo" style="text;html=1;strokeColor=none;fillColor=none;align=center;verticalAlign=middle;whiteSpace=wrap;rounded=0;fontSize=14;" parent="MJLlHMDSpS5lDLoSnXZj-20" vertex="1">
          <mxGeometry x="61.14999999999998" width="57.15" height="30" as="geometry" />
        </mxCell>
        <mxCell id="MJLlHMDSpS5lDLoSnXZj-31" value="Live Feed Screen" style="text;html=1;strokeColor=none;fillColor=none;align=center;verticalAlign=middle;whiteSpace=wrap;rounded=0;fontSize=14;" parent="1" vertex="1">
          <mxGeometry x="790" y="10" width="130" height="30" as="geometry" />
        </mxCell>
        <mxCell id="MJLlHMDSpS5lDLoSnXZj-34" value="Recently Added" style="text;html=1;strokeColor=none;fillColor=none;align=center;verticalAlign=middle;whiteSpace=wrap;rounded=0;fontSize=14;fontStyle=1" parent="1" vertex="1">
          <mxGeometry x="827" y="150" width="113" height="30" as="geometry" />
        </mxCell>
        <mxCell id="MJLlHMDSpS5lDLoSnXZj-35" value="" style="endArrow=none;html=1;rounded=0;" parent="1" edge="1">
          <mxGeometry width="50" height="50" relative="1" as="geometry">
            <mxPoint x="794" y="193" as="sourcePoint" />
            <mxPoint x="1093" y="193" as="targetPoint" />
          </mxGeometry>
        </mxCell>
        <mxCell id="MJLlHMDSpS5lDLoSnXZj-36" value="Some Hole Location" style="text;html=1;strokeColor=none;fillColor=none;align=center;verticalAlign=middle;whiteSpace=wrap;rounded=0;fontSize=14;" parent="1" vertex="1">
          <mxGeometry x="940" y="200" width="133" height="30" as="geometry" />
        </mxCell>
        <mxCell id="MJLlHMDSpS5lDLoSnXZj-37" value="Date Added: 12/12/2022" style="text;html=1;strokeColor=none;fillColor=none;align=center;verticalAlign=middle;whiteSpace=wrap;rounded=0;fontSize=14;" parent="1" vertex="1">
          <mxGeometry x="970" y="230" width="103" height="30" as="geometry" />
        </mxCell>
        <mxCell id="MJLlHMDSpS5lDLoSnXZj-44" value="" style="group" parent="1" vertex="1" connectable="0">
          <mxGeometry x="827" y="205" width="70" height="65" as="geometry" />
        </mxCell>
        <mxCell id="MJLlHMDSpS5lDLoSnXZj-45" value="" style="rounded=0;whiteSpace=wrap;html=1;fillColor=#FFFFFF;" parent="MJLlHMDSpS5lDLoSnXZj-44" vertex="1">
          <mxGeometry x="6.928100963882572e-14" width="65.002901915264" height="65" as="geometry" />
        </mxCell>
        <mxCell id="MJLlHMDSpS5lDLoSnXZj-46" value="" style="endArrow=none;html=1;rounded=0;exitX=0;exitY=1;exitDx=0;exitDy=0;" parent="MJLlHMDSpS5lDLoSnXZj-44" source="MJLlHMDSpS5lDLoSnXZj-45" edge="1">
          <mxGeometry width="50" height="50" relative="1" as="geometry">
            <mxPoint x="24.376088218224073" y="40.625" as="sourcePoint" />
            <mxPoint x="65.00290191526408" as="targetPoint" />
          </mxGeometry>
        </mxCell>
        <mxCell id="MJLlHMDSpS5lDLoSnXZj-47" value="" style="endArrow=none;html=1;rounded=0;exitX=1;exitY=1;exitDx=0;exitDy=0;" parent="MJLlHMDSpS5lDLoSnXZj-44" source="MJLlHMDSpS5lDLoSnXZj-45" edge="1">
          <mxGeometry width="50" height="50" relative="1" as="geometry">
            <mxPoint x="-65.002901915264" y="65" as="sourcePoint" />
            <mxPoint as="targetPoint" />
          </mxGeometry>
        </mxCell>
        <mxCell id="MJLlHMDSpS5lDLoSnXZj-48" value="&lt;span style=&quot;color: rgb(0, 0, 0); font-family: Helvetica; font-size: 14px; font-style: normal; font-variant-ligatures: normal; font-variant-caps: normal; font-weight: 400; letter-spacing: normal; orphans: 2; text-align: center; text-indent: 0px; text-transform: none; widows: 2; word-spacing: 0px; -webkit-text-stroke-width: 0px; background-color: rgb(248, 249, 250); text-decoration-thickness: initial; text-decoration-style: initial; text-decoration-color: initial; float: none; display: inline !important;&quot;&gt;Img&lt;/span&gt;" style="text;whiteSpace=wrap;html=1;" parent="MJLlHMDSpS5lDLoSnXZj-44" vertex="1">
          <mxGeometry x="21.247823563551922" y="40.625" width="27.504352872896085" height="16.25" as="geometry" />
        </mxCell>
        <mxCell id="MJLlHMDSpS5lDLoSnXZj-49" value="" style="endArrow=none;html=1;rounded=0;" parent="1" edge="1">
          <mxGeometry width="50" height="50" relative="1" as="geometry">
            <mxPoint x="794" y="284" as="sourcePoint" />
            <mxPoint x="1093" y="284" as="targetPoint" />
          </mxGeometry>
        </mxCell>
        <mxCell id="MJLlHMDSpS5lDLoSnXZj-59" value="" style="endArrow=none;html=1;rounded=0;" parent="1" edge="1">
          <mxGeometry width="50" height="50" relative="1" as="geometry">
            <mxPoint x="794.5" y="294.33" as="sourcePoint" />
            <mxPoint x="1093.5" y="294.33" as="targetPoint" />
          </mxGeometry>
        </mxCell>
        <mxCell id="MJLlHMDSpS5lDLoSnXZj-60" value="Some Hole Location" style="text;html=1;strokeColor=none;fillColor=none;align=center;verticalAlign=middle;whiteSpace=wrap;rounded=0;fontSize=14;" parent="1" vertex="1">
          <mxGeometry x="940.5" y="301.33" width="133" height="30" as="geometry" />
        </mxCell>
        <mxCell id="MJLlHMDSpS5lDLoSnXZj-61" value="Date Added: 12/12/2022" style="text;html=1;strokeColor=none;fillColor=none;align=center;verticalAlign=middle;whiteSpace=wrap;rounded=0;fontSize=14;" parent="1" vertex="1">
          <mxGeometry x="970.5" y="331.33" width="103" height="30" as="geometry" />
        </mxCell>
        <mxCell id="MJLlHMDSpS5lDLoSnXZj-62" value="" style="group" parent="1" vertex="1" connectable="0">
          <mxGeometry x="827.5" y="306.33" width="70" height="65" as="geometry" />
        </mxCell>
        <mxCell id="MJLlHMDSpS5lDLoSnXZj-63" value="" style="rounded=0;whiteSpace=wrap;html=1;fillColor=#FFFFFF;" parent="MJLlHMDSpS5lDLoSnXZj-62" vertex="1">
          <mxGeometry x="6.928100963882572e-14" width="65.002901915264" height="65" as="geometry" />
        </mxCell>
        <mxCell id="MJLlHMDSpS5lDLoSnXZj-64" value="" style="endArrow=none;html=1;rounded=0;exitX=0;exitY=1;exitDx=0;exitDy=0;" parent="MJLlHMDSpS5lDLoSnXZj-62" source="MJLlHMDSpS5lDLoSnXZj-63" edge="1">
          <mxGeometry width="50" height="50" relative="1" as="geometry">
            <mxPoint x="24.376088218224073" y="40.625" as="sourcePoint" />
            <mxPoint x="65.00290191526408" as="targetPoint" />
          </mxGeometry>
        </mxCell>
        <mxCell id="MJLlHMDSpS5lDLoSnXZj-65" value="" style="endArrow=none;html=1;rounded=0;exitX=1;exitY=1;exitDx=0;exitDy=0;" parent="MJLlHMDSpS5lDLoSnXZj-62" source="MJLlHMDSpS5lDLoSnXZj-63" edge="1">
          <mxGeometry width="50" height="50" relative="1" as="geometry">
            <mxPoint x="-65.002901915264" y="65" as="sourcePoint" />
            <mxPoint as="targetPoint" />
          </mxGeometry>
        </mxCell>
        <mxCell id="MJLlHMDSpS5lDLoSnXZj-66" value="&lt;span style=&quot;color: rgb(0, 0, 0); font-family: Helvetica; font-size: 14px; font-style: normal; font-variant-ligatures: normal; font-variant-caps: normal; font-weight: 400; letter-spacing: normal; orphans: 2; text-align: center; text-indent: 0px; text-transform: none; widows: 2; word-spacing: 0px; -webkit-text-stroke-width: 0px; background-color: rgb(248, 249, 250); text-decoration-thickness: initial; text-decoration-style: initial; text-decoration-color: initial; float: none; display: inline !important;&quot;&gt;Img&lt;/span&gt;" style="text;whiteSpace=wrap;html=1;" parent="MJLlHMDSpS5lDLoSnXZj-62" vertex="1">
          <mxGeometry x="21.247823563551922" y="40.625" width="27.504352872896085" height="16.25" as="geometry" />
        </mxCell>
        <mxCell id="MJLlHMDSpS5lDLoSnXZj-67" value="" style="endArrow=none;html=1;rounded=0;" parent="1" edge="1">
          <mxGeometry width="50" height="50" relative="1" as="geometry">
            <mxPoint x="794.5" y="385.33" as="sourcePoint" />
            <mxPoint x="1093.5" y="385.33" as="targetPoint" />
          </mxGeometry>
        </mxCell>
        <mxCell id="MJLlHMDSpS5lDLoSnXZj-68" value="" style="endArrow=none;html=1;rounded=0;" parent="1" edge="1">
          <mxGeometry width="50" height="50" relative="1" as="geometry">
            <mxPoint x="794.34" y="394.99999999999994" as="sourcePoint" />
            <mxPoint x="1093.34" y="394.99999999999994" as="targetPoint" />
          </mxGeometry>
        </mxCell>
        <mxCell id="MJLlHMDSpS5lDLoSnXZj-69" value="Some Hole Location" style="text;html=1;strokeColor=none;fillColor=none;align=center;verticalAlign=middle;whiteSpace=wrap;rounded=0;fontSize=14;" parent="1" vertex="1">
          <mxGeometry x="940.34" y="402" width="133" height="30" as="geometry" />
        </mxCell>
        <mxCell id="MJLlHMDSpS5lDLoSnXZj-70" value="Date Added: 12/12/2022" style="text;html=1;strokeColor=none;fillColor=none;align=center;verticalAlign=middle;whiteSpace=wrap;rounded=0;fontSize=14;" parent="1" vertex="1">
          <mxGeometry x="970.34" y="432" width="103" height="30" as="geometry" />
        </mxCell>
        <mxCell id="MJLlHMDSpS5lDLoSnXZj-71" value="" style="group" parent="1" vertex="1" connectable="0">
          <mxGeometry x="827.34" y="407" width="70" height="65" as="geometry" />
        </mxCell>
        <mxCell id="MJLlHMDSpS5lDLoSnXZj-72" value="" style="rounded=0;whiteSpace=wrap;html=1;fillColor=#FFFFFF;" parent="MJLlHMDSpS5lDLoSnXZj-71" vertex="1">
          <mxGeometry x="6.928100963882572e-14" width="65.002901915264" height="65" as="geometry" />
        </mxCell>
        <mxCell id="MJLlHMDSpS5lDLoSnXZj-73" value="" style="endArrow=none;html=1;rounded=0;exitX=0;exitY=1;exitDx=0;exitDy=0;" parent="MJLlHMDSpS5lDLoSnXZj-71" source="MJLlHMDSpS5lDLoSnXZj-72" edge="1">
          <mxGeometry width="50" height="50" relative="1" as="geometry">
            <mxPoint x="24.376088218224073" y="40.625" as="sourcePoint" />
            <mxPoint x="65.00290191526408" as="targetPoint" />
          </mxGeometry>
        </mxCell>
        <mxCell id="MJLlHMDSpS5lDLoSnXZj-74" value="" style="endArrow=none;html=1;rounded=0;exitX=1;exitY=1;exitDx=0;exitDy=0;" parent="MJLlHMDSpS5lDLoSnXZj-71" source="MJLlHMDSpS5lDLoSnXZj-72" edge="1">
          <mxGeometry width="50" height="50" relative="1" as="geometry">
            <mxPoint x="-65.002901915264" y="65" as="sourcePoint" />
            <mxPoint as="targetPoint" />
          </mxGeometry>
        </mxCell>
        <mxCell id="MJLlHMDSpS5lDLoSnXZj-75" value="&lt;span style=&quot;color: rgb(0, 0, 0); font-family: Helvetica; font-size: 14px; font-style: normal; font-variant-ligatures: normal; font-variant-caps: normal; font-weight: 400; letter-spacing: normal; orphans: 2; text-align: center; text-indent: 0px; text-transform: none; widows: 2; word-spacing: 0px; -webkit-text-stroke-width: 0px; background-color: rgb(248, 249, 250); text-decoration-thickness: initial; text-decoration-style: initial; text-decoration-color: initial; float: none; display: inline !important;&quot;&gt;Img&lt;/span&gt;" style="text;whiteSpace=wrap;html=1;" parent="MJLlHMDSpS5lDLoSnXZj-71" vertex="1">
          <mxGeometry x="21.247823563551922" y="40.625" width="27.504352872896085" height="16.25" as="geometry" />
        </mxCell>
        <mxCell id="MJLlHMDSpS5lDLoSnXZj-76" value="" style="endArrow=none;html=1;rounded=0;" parent="1" edge="1">
          <mxGeometry width="50" height="50" relative="1" as="geometry">
            <mxPoint x="794.34" y="485.99999999999994" as="sourcePoint" />
            <mxPoint x="1093.34" y="485.99999999999994" as="targetPoint" />
          </mxGeometry>
        </mxCell>
        <mxCell id="MJLlHMDSpS5lDLoSnXZj-77" value="" style="endArrow=none;html=1;rounded=0;" parent="1" edge="1">
          <mxGeometry width="50" height="50" relative="1" as="geometry">
            <mxPoint x="794.3400000000001" y="497" as="sourcePoint" />
            <mxPoint x="1093.3400000000001" y="497" as="targetPoint" />
          </mxGeometry>
        </mxCell>
        <mxCell id="MJLlHMDSpS5lDLoSnXZj-78" value="Some Hole Location" style="text;html=1;strokeColor=none;fillColor=none;align=center;verticalAlign=middle;whiteSpace=wrap;rounded=0;fontSize=14;" parent="1" vertex="1">
          <mxGeometry x="940.34" y="504" width="133" height="30" as="geometry" />
        </mxCell>
        <mxCell id="MJLlHMDSpS5lDLoSnXZj-79" value="Date Added: 12/12/2022" style="text;html=1;strokeColor=none;fillColor=none;align=center;verticalAlign=middle;whiteSpace=wrap;rounded=0;fontSize=14;" parent="1" vertex="1">
          <mxGeometry x="970.34" y="534" width="103" height="30" as="geometry" />
        </mxCell>
        <mxCell id="MJLlHMDSpS5lDLoSnXZj-80" value="" style="group" parent="1" vertex="1" connectable="0">
          <mxGeometry x="827.34" y="509" width="70" height="65" as="geometry" />
        </mxCell>
        <mxCell id="MJLlHMDSpS5lDLoSnXZj-81" value="" style="rounded=0;whiteSpace=wrap;html=1;fillColor=#FFFFFF;" parent="MJLlHMDSpS5lDLoSnXZj-80" vertex="1">
          <mxGeometry x="6.928100963882572e-14" width="65.002901915264" height="65" as="geometry" />
        </mxCell>
        <mxCell id="MJLlHMDSpS5lDLoSnXZj-82" value="" style="endArrow=none;html=1;rounded=0;exitX=0;exitY=1;exitDx=0;exitDy=0;" parent="MJLlHMDSpS5lDLoSnXZj-80" source="MJLlHMDSpS5lDLoSnXZj-81" edge="1">
          <mxGeometry width="50" height="50" relative="1" as="geometry">
            <mxPoint x="24.376088218224073" y="40.625" as="sourcePoint" />
            <mxPoint x="65.00290191526408" as="targetPoint" />
          </mxGeometry>
        </mxCell>
        <mxCell id="MJLlHMDSpS5lDLoSnXZj-83" value="" style="endArrow=none;html=1;rounded=0;exitX=1;exitY=1;exitDx=0;exitDy=0;" parent="MJLlHMDSpS5lDLoSnXZj-80" source="MJLlHMDSpS5lDLoSnXZj-81" edge="1">
          <mxGeometry width="50" height="50" relative="1" as="geometry">
            <mxPoint x="-65.002901915264" y="65" as="sourcePoint" />
            <mxPoint as="targetPoint" />
          </mxGeometry>
        </mxCell>
        <mxCell id="MJLlHMDSpS5lDLoSnXZj-84" value="&lt;span style=&quot;color: rgb(0, 0, 0); font-family: Helvetica; font-size: 14px; font-style: normal; font-variant-ligatures: normal; font-variant-caps: normal; font-weight: 400; letter-spacing: normal; orphans: 2; text-align: center; text-indent: 0px; text-transform: none; widows: 2; word-spacing: 0px; -webkit-text-stroke-width: 0px; background-color: rgb(248, 249, 250); text-decoration-thickness: initial; text-decoration-style: initial; text-decoration-color: initial; float: none; display: inline !important;&quot;&gt;Img&lt;/span&gt;" style="text;whiteSpace=wrap;html=1;" parent="MJLlHMDSpS5lDLoSnXZj-80" vertex="1">
          <mxGeometry x="21.247823563551922" y="40.625" width="27.504352872896085" height="16.25" as="geometry" />
        </mxCell>
        <mxCell id="MJLlHMDSpS5lDLoSnXZj-85" value="" style="endArrow=none;html=1;rounded=0;" parent="1" edge="1">
          <mxGeometry width="50" height="50" relative="1" as="geometry">
            <mxPoint x="794.3400000000001" y="588" as="sourcePoint" />
            <mxPoint x="1093.3400000000001" y="588" as="targetPoint" />
          </mxGeometry>
        </mxCell>
        <mxCell id="MJLlHMDSpS5lDLoSnXZj-86" value="" style="rounded=0;whiteSpace=wrap;html=1;" parent="1" vertex="1">
          <mxGeometry x="800.5" y="546" width="287.5" height="44" as="geometry" />
        </mxCell>
        <mxCell id="MJLlHMDSpS5lDLoSnXZj-87" value="" style="group" parent="1" vertex="1" connectable="0">
          <mxGeometry x="851" y="554" width="28" height="28" as="geometry" />
        </mxCell>
        <mxCell id="MJLlHMDSpS5lDLoSnXZj-88" value="" style="rounded=0;whiteSpace=wrap;html=1;fillColor=#FFFFFF;" parent="MJLlHMDSpS5lDLoSnXZj-87" vertex="1">
          <mxGeometry x="2.984279490192417e-14" width="27.999999999999968" height="28" as="geometry" />
        </mxCell>
        <mxCell id="MJLlHMDSpS5lDLoSnXZj-89" value="" style="endArrow=none;html=1;rounded=0;exitX=0;exitY=1;exitDx=0;exitDy=0;" parent="MJLlHMDSpS5lDLoSnXZj-87" source="MJLlHMDSpS5lDLoSnXZj-88" edge="1">
          <mxGeometry width="50" height="50" relative="1" as="geometry">
            <mxPoint x="10.500000000000018" y="17.5" as="sourcePoint" />
            <mxPoint x="28" as="targetPoint" />
          </mxGeometry>
        </mxCell>
        <mxCell id="MJLlHMDSpS5lDLoSnXZj-90" value="" style="endArrow=none;html=1;rounded=0;exitX=1;exitY=1;exitDx=0;exitDy=0;" parent="MJLlHMDSpS5lDLoSnXZj-87" source="MJLlHMDSpS5lDLoSnXZj-88" edge="1">
          <mxGeometry width="50" height="50" relative="1" as="geometry">
            <mxPoint x="-27.999999999999968" y="28" as="sourcePoint" />
            <mxPoint as="targetPoint" />
          </mxGeometry>
        </mxCell>
        <mxCell id="MJLlHMDSpS5lDLoSnXZj-91" value="" style="group" parent="1" vertex="1" connectable="0">
          <mxGeometry x="902" y="554" width="28" height="28" as="geometry" />
        </mxCell>
        <mxCell id="MJLlHMDSpS5lDLoSnXZj-92" value="" style="rounded=0;whiteSpace=wrap;html=1;fillColor=#FFFFFF;" parent="MJLlHMDSpS5lDLoSnXZj-91" vertex="1">
          <mxGeometry x="2.984279490192417e-14" width="27.999999999999968" height="28" as="geometry" />
        </mxCell>
        <mxCell id="MJLlHMDSpS5lDLoSnXZj-93" value="" style="endArrow=none;html=1;rounded=0;exitX=0;exitY=1;exitDx=0;exitDy=0;" parent="MJLlHMDSpS5lDLoSnXZj-91" source="MJLlHMDSpS5lDLoSnXZj-92" edge="1">
          <mxGeometry width="50" height="50" relative="1" as="geometry">
            <mxPoint x="10.500000000000018" y="17.5" as="sourcePoint" />
            <mxPoint x="28" as="targetPoint" />
          </mxGeometry>
        </mxCell>
        <mxCell id="MJLlHMDSpS5lDLoSnXZj-94" value="" style="endArrow=none;html=1;rounded=0;exitX=1;exitY=1;exitDx=0;exitDy=0;" parent="MJLlHMDSpS5lDLoSnXZj-91" source="MJLlHMDSpS5lDLoSnXZj-92" edge="1">
          <mxGeometry width="50" height="50" relative="1" as="geometry">
            <mxPoint x="-27.999999999999968" y="28" as="sourcePoint" />
            <mxPoint as="targetPoint" />
          </mxGeometry>
        </mxCell>
        <mxCell id="MJLlHMDSpS5lDLoSnXZj-95" value="" style="group" parent="1" vertex="1" connectable="0">
          <mxGeometry x="952" y="554" width="28" height="28" as="geometry" />
        </mxCell>
        <mxCell id="MJLlHMDSpS5lDLoSnXZj-96" value="" style="rounded=0;whiteSpace=wrap;html=1;fillColor=#FFFFFF;" parent="MJLlHMDSpS5lDLoSnXZj-95" vertex="1">
          <mxGeometry x="2.984279490192417e-14" width="27.999999999999968" height="28" as="geometry" />
        </mxCell>
        <mxCell id="MJLlHMDSpS5lDLoSnXZj-97" value="" style="endArrow=none;html=1;rounded=0;exitX=0;exitY=1;exitDx=0;exitDy=0;" parent="MJLlHMDSpS5lDLoSnXZj-95" source="MJLlHMDSpS5lDLoSnXZj-96" edge="1">
          <mxGeometry width="50" height="50" relative="1" as="geometry">
            <mxPoint x="10.500000000000018" y="17.5" as="sourcePoint" />
            <mxPoint x="28" as="targetPoint" />
          </mxGeometry>
        </mxCell>
        <mxCell id="MJLlHMDSpS5lDLoSnXZj-98" value="" style="endArrow=none;html=1;rounded=0;exitX=1;exitY=1;exitDx=0;exitDy=0;" parent="MJLlHMDSpS5lDLoSnXZj-95" source="MJLlHMDSpS5lDLoSnXZj-96" edge="1">
          <mxGeometry width="50" height="50" relative="1" as="geometry">
            <mxPoint x="-27.999999999999968" y="28" as="sourcePoint" />
            <mxPoint as="targetPoint" />
          </mxGeometry>
        </mxCell>
        <mxCell id="MJLlHMDSpS5lDLoSnXZj-99" value="" style="group" parent="1" vertex="1" connectable="0">
          <mxGeometry x="1002" y="554" width="28" height="28" as="geometry" />
        </mxCell>
        <mxCell id="MJLlHMDSpS5lDLoSnXZj-100" value="" style="rounded=0;whiteSpace=wrap;html=1;fillColor=#FFFFFF;" parent="MJLlHMDSpS5lDLoSnXZj-99" vertex="1">
          <mxGeometry x="2.984279490192417e-14" width="27.999999999999968" height="28" as="geometry" />
        </mxCell>
        <mxCell id="MJLlHMDSpS5lDLoSnXZj-101" value="" style="endArrow=none;html=1;rounded=0;exitX=0;exitY=1;exitDx=0;exitDy=0;" parent="MJLlHMDSpS5lDLoSnXZj-99" source="MJLlHMDSpS5lDLoSnXZj-100" edge="1">
          <mxGeometry width="50" height="50" relative="1" as="geometry">
            <mxPoint x="10.500000000000018" y="17.5" as="sourcePoint" />
            <mxPoint x="28" as="targetPoint" />
          </mxGeometry>
        </mxCell>
        <mxCell id="MJLlHMDSpS5lDLoSnXZj-102" value="" style="endArrow=none;html=1;rounded=0;exitX=1;exitY=1;exitDx=0;exitDy=0;" parent="MJLlHMDSpS5lDLoSnXZj-99" source="MJLlHMDSpS5lDLoSnXZj-100" edge="1">
          <mxGeometry width="50" height="50" relative="1" as="geometry">
            <mxPoint x="-27.999999999999968" y="28" as="sourcePoint" />
            <mxPoint as="targetPoint" />
          </mxGeometry>
        </mxCell>
        <mxCell id="MJLlHMDSpS5lDLoSnXZj-104" value="" style="verticalLabelPosition=bottom;verticalAlign=top;html=1;shadow=0;dashed=0;strokeWidth=1;shape=mxgraph.android.phone2;strokeColor=#c0c0c0;flipV=0;fillColor=#030303;" parent="1" vertex="1">
          <mxGeometry x="1158" y="40" width="307.69" height="600" as="geometry" />
        </mxCell>
        <mxCell id="MJLlHMDSpS5lDLoSnXZj-105" value="" style="endArrow=none;html=1;rounded=0;fontSize=14;" parent="1" edge="1">
          <mxGeometry width="50" height="50" relative="1" as="geometry">
            <mxPoint x="1164" y="137.99999999999997" as="sourcePoint" />
            <mxPoint x="1460" y="137.99999999999997" as="targetPoint" />
          </mxGeometry>
        </mxCell>
        <mxCell id="MJLlHMDSpS5lDLoSnXZj-106" value="" style="group" parent="1" vertex="1" connectable="0">
          <mxGeometry x="1256.85" y="102" width="118.29999999999998" height="30" as="geometry" />
        </mxCell>
        <mxCell id="MJLlHMDSpS5lDLoSnXZj-107" value="" style="rounded=0;whiteSpace=wrap;html=1;fillColor=#FFFFFF;" parent="MJLlHMDSpS5lDLoSnXZj-106" vertex="1">
          <mxGeometry x="1.1723955140041638e-13" width="109.99999999999987" height="28" as="geometry" />
        </mxCell>
        <mxCell id="MJLlHMDSpS5lDLoSnXZj-108" value="" style="endArrow=none;html=1;rounded=0;exitX=0;exitY=1;exitDx=0;exitDy=0;" parent="MJLlHMDSpS5lDLoSnXZj-106" source="MJLlHMDSpS5lDLoSnXZj-107" edge="1">
          <mxGeometry width="50" height="50" relative="1" as="geometry">
            <mxPoint x="41.25000000000007" y="17.5" as="sourcePoint" />
            <mxPoint x="110" as="targetPoint" />
          </mxGeometry>
        </mxCell>
        <mxCell id="MJLlHMDSpS5lDLoSnXZj-109" value="" style="endArrow=none;html=1;rounded=0;exitX=1;exitY=1;exitDx=0;exitDy=0;" parent="MJLlHMDSpS5lDLoSnXZj-106" source="MJLlHMDSpS5lDLoSnXZj-107" edge="1">
          <mxGeometry width="50" height="50" relative="1" as="geometry">
            <mxPoint x="-109.99999999999987" y="28" as="sourcePoint" />
            <mxPoint as="targetPoint" />
          </mxGeometry>
        </mxCell>
        <mxCell id="MJLlHMDSpS5lDLoSnXZj-110" value="Logo" style="text;html=1;strokeColor=none;fillColor=none;align=center;verticalAlign=middle;whiteSpace=wrap;rounded=0;fontSize=14;" parent="MJLlHMDSpS5lDLoSnXZj-106" vertex="1">
          <mxGeometry x="61.14999999999998" width="57.15" height="30" as="geometry" />
        </mxCell>
        <mxCell id="MJLlHMDSpS5lDLoSnXZj-111" value="Profile Screen" style="text;html=1;strokeColor=none;fillColor=none;align=center;verticalAlign=middle;whiteSpace=wrap;rounded=0;fontSize=14;" parent="1" vertex="1">
          <mxGeometry x="1158" y="9.999999999999998" width="130" height="30" as="geometry" />
        </mxCell>
        <mxCell id="MJLlHMDSpS5lDLoSnXZj-148" value="" style="endArrow=none;html=1;rounded=0;" parent="1" edge="1">
          <mxGeometry width="50" height="50" relative="1" as="geometry">
            <mxPoint x="1162.3400000000001" y="588" as="sourcePoint" />
            <mxPoint x="1461.3400000000001" y="588" as="targetPoint" />
          </mxGeometry>
        </mxCell>
        <mxCell id="MJLlHMDSpS5lDLoSnXZj-149" value="" style="rounded=0;whiteSpace=wrap;html=1;" parent="1" vertex="1">
          <mxGeometry x="1168.5" y="546" width="287.5" height="44" as="geometry" />
        </mxCell>
        <mxCell id="MJLlHMDSpS5lDLoSnXZj-150" value="" style="group" parent="1" vertex="1" connectable="0">
          <mxGeometry x="1219" y="554" width="28" height="28" as="geometry" />
        </mxCell>
        <mxCell id="MJLlHMDSpS5lDLoSnXZj-151" value="" style="rounded=0;whiteSpace=wrap;html=1;fillColor=#FFFFFF;" parent="MJLlHMDSpS5lDLoSnXZj-150" vertex="1">
          <mxGeometry x="2.984279490192417e-14" width="27.999999999999968" height="28" as="geometry" />
        </mxCell>
        <mxCell id="MJLlHMDSpS5lDLoSnXZj-152" value="" style="endArrow=none;html=1;rounded=0;exitX=0;exitY=1;exitDx=0;exitDy=0;" parent="MJLlHMDSpS5lDLoSnXZj-150" source="MJLlHMDSpS5lDLoSnXZj-151" edge="1">
          <mxGeometry width="50" height="50" relative="1" as="geometry">
            <mxPoint x="10.500000000000018" y="17.5" as="sourcePoint" />
            <mxPoint x="28" as="targetPoint" />
          </mxGeometry>
        </mxCell>
        <mxCell id="MJLlHMDSpS5lDLoSnXZj-153" value="" style="endArrow=none;html=1;rounded=0;exitX=1;exitY=1;exitDx=0;exitDy=0;" parent="MJLlHMDSpS5lDLoSnXZj-150" source="MJLlHMDSpS5lDLoSnXZj-151" edge="1">
          <mxGeometry width="50" height="50" relative="1" as="geometry">
            <mxPoint x="-27.999999999999968" y="28" as="sourcePoint" />
            <mxPoint as="targetPoint" />
          </mxGeometry>
        </mxCell>
        <mxCell id="MJLlHMDSpS5lDLoSnXZj-154" value="" style="group" parent="1" vertex="1" connectable="0">
          <mxGeometry x="1270" y="554" width="28" height="28" as="geometry" />
        </mxCell>
        <mxCell id="MJLlHMDSpS5lDLoSnXZj-155" value="" style="rounded=0;whiteSpace=wrap;html=1;fillColor=#FFFFFF;" parent="MJLlHMDSpS5lDLoSnXZj-154" vertex="1">
          <mxGeometry x="2.984279490192417e-14" width="27.999999999999968" height="28" as="geometry" />
        </mxCell>
        <mxCell id="MJLlHMDSpS5lDLoSnXZj-156" value="" style="endArrow=none;html=1;rounded=0;exitX=0;exitY=1;exitDx=0;exitDy=0;" parent="MJLlHMDSpS5lDLoSnXZj-154" source="MJLlHMDSpS5lDLoSnXZj-155" edge="1">
          <mxGeometry width="50" height="50" relative="1" as="geometry">
            <mxPoint x="10.500000000000018" y="17.5" as="sourcePoint" />
            <mxPoint x="28" as="targetPoint" />
          </mxGeometry>
        </mxCell>
        <mxCell id="MJLlHMDSpS5lDLoSnXZj-157" value="" style="endArrow=none;html=1;rounded=0;exitX=1;exitY=1;exitDx=0;exitDy=0;" parent="MJLlHMDSpS5lDLoSnXZj-154" source="MJLlHMDSpS5lDLoSnXZj-155" edge="1">
          <mxGeometry width="50" height="50" relative="1" as="geometry">
            <mxPoint x="-27.999999999999968" y="28" as="sourcePoint" />
            <mxPoint as="targetPoint" />
          </mxGeometry>
        </mxCell>
        <mxCell id="MJLlHMDSpS5lDLoSnXZj-158" value="" style="group" parent="1" vertex="1" connectable="0">
          <mxGeometry x="1320" y="554" width="28" height="28" as="geometry" />
        </mxCell>
        <mxCell id="MJLlHMDSpS5lDLoSnXZj-159" value="" style="rounded=0;whiteSpace=wrap;html=1;fillColor=#FFFFFF;" parent="MJLlHMDSpS5lDLoSnXZj-158" vertex="1">
          <mxGeometry x="2.984279490192417e-14" width="27.999999999999968" height="28" as="geometry" />
        </mxCell>
        <mxCell id="MJLlHMDSpS5lDLoSnXZj-160" value="" style="endArrow=none;html=1;rounded=0;exitX=0;exitY=1;exitDx=0;exitDy=0;" parent="MJLlHMDSpS5lDLoSnXZj-158" source="MJLlHMDSpS5lDLoSnXZj-159" edge="1">
          <mxGeometry width="50" height="50" relative="1" as="geometry">
            <mxPoint x="10.500000000000018" y="17.5" as="sourcePoint" />
            <mxPoint x="28" as="targetPoint" />
          </mxGeometry>
        </mxCell>
        <mxCell id="MJLlHMDSpS5lDLoSnXZj-161" value="" style="endArrow=none;html=1;rounded=0;exitX=1;exitY=1;exitDx=0;exitDy=0;" parent="MJLlHMDSpS5lDLoSnXZj-158" source="MJLlHMDSpS5lDLoSnXZj-159" edge="1">
          <mxGeometry width="50" height="50" relative="1" as="geometry">
            <mxPoint x="-27.999999999999968" y="28" as="sourcePoint" />
            <mxPoint as="targetPoint" />
          </mxGeometry>
        </mxCell>
        <mxCell id="MJLlHMDSpS5lDLoSnXZj-162" value="" style="group" parent="1" vertex="1" connectable="0">
          <mxGeometry x="1370" y="554" width="28" height="28" as="geometry" />
        </mxCell>
        <mxCell id="MJLlHMDSpS5lDLoSnXZj-163" value="" style="rounded=0;whiteSpace=wrap;html=1;fillColor=#FFFFFF;" parent="MJLlHMDSpS5lDLoSnXZj-162" vertex="1">
          <mxGeometry x="2.984279490192417e-14" width="27.999999999999968" height="28" as="geometry" />
        </mxCell>
        <mxCell id="MJLlHMDSpS5lDLoSnXZj-164" value="" style="endArrow=none;html=1;rounded=0;exitX=0;exitY=1;exitDx=0;exitDy=0;" parent="MJLlHMDSpS5lDLoSnXZj-162" source="MJLlHMDSpS5lDLoSnXZj-163" edge="1">
          <mxGeometry width="50" height="50" relative="1" as="geometry">
            <mxPoint x="10.500000000000018" y="17.5" as="sourcePoint" />
            <mxPoint x="28" as="targetPoint" />
          </mxGeometry>
        </mxCell>
        <mxCell id="MJLlHMDSpS5lDLoSnXZj-165" value="" style="endArrow=none;html=1;rounded=0;exitX=1;exitY=1;exitDx=0;exitDy=0;" parent="MJLlHMDSpS5lDLoSnXZj-162" source="MJLlHMDSpS5lDLoSnXZj-163" edge="1">
          <mxGeometry width="50" height="50" relative="1" as="geometry">
            <mxPoint x="-27.999999999999968" y="28" as="sourcePoint" />
            <mxPoint as="targetPoint" />
          </mxGeometry>
        </mxCell>
        <mxCell id="MJLlHMDSpS5lDLoSnXZj-166" value="" style="group" parent="1" vertex="1" connectable="0">
          <mxGeometry x="1263" y="170" width="96.92" height="90" as="geometry" />
        </mxCell>
        <mxCell id="MJLlHMDSpS5lDLoSnXZj-167" value="" style="rounded=0;whiteSpace=wrap;html=1;fillColor=#FFFFFF;" parent="MJLlHMDSpS5lDLoSnXZj-166" vertex="1">
          <mxGeometry x="9.592450648849984e-14" width="90.00116076610553" height="90" as="geometry" />
        </mxCell>
        <mxCell id="MJLlHMDSpS5lDLoSnXZj-168" value="" style="endArrow=none;html=1;rounded=0;exitX=0;exitY=1;exitDx=0;exitDy=0;" parent="MJLlHMDSpS5lDLoSnXZj-166" source="MJLlHMDSpS5lDLoSnXZj-167" edge="1">
          <mxGeometry width="50" height="50" relative="1" as="geometry">
            <mxPoint x="33.750435287289676" y="56.25" as="sourcePoint" />
            <mxPoint x="90.00116076610563" as="targetPoint" />
          </mxGeometry>
        </mxCell>
        <mxCell id="MJLlHMDSpS5lDLoSnXZj-169" value="" style="endArrow=none;html=1;rounded=0;exitX=1;exitY=1;exitDx=0;exitDy=0;" parent="MJLlHMDSpS5lDLoSnXZj-166" source="MJLlHMDSpS5lDLoSnXZj-167" edge="1">
          <mxGeometry width="50" height="50" relative="1" as="geometry">
            <mxPoint x="-90.00116076610553" y="90" as="sourcePoint" />
            <mxPoint as="targetPoint" />
          </mxGeometry>
        </mxCell>
        <mxCell id="MJLlHMDSpS5lDLoSnXZj-170" value="&lt;span style=&quot;color: rgb(0, 0, 0); font-family: Helvetica; font-size: 14px; font-style: normal; font-variant-ligatures: normal; font-variant-caps: normal; font-weight: 400; letter-spacing: normal; orphans: 2; text-align: center; text-indent: 0px; text-transform: none; widows: 2; word-spacing: 0px; -webkit-text-stroke-width: 0px; background-color: rgb(248, 249, 250); text-decoration-thickness: initial; text-decoration-style: initial; text-decoration-color: initial; float: none; display: inline !important;&quot;&gt;Account Picture&lt;/span&gt;" style="text;whiteSpace=wrap;html=1;" parent="MJLlHMDSpS5lDLoSnXZj-166" vertex="1">
          <mxGeometry x="20" y="50" width="47.5" height="28.75" as="geometry" />
        </mxCell>
        <mxCell id="MJLlHMDSpS5lDLoSnXZj-171" value="&amp;lt;username&amp;gt;&#39;s Account" style="text;html=1;strokeColor=none;fillColor=none;align=center;verticalAlign=middle;whiteSpace=wrap;rounded=0;fontSize=14;" parent="1" vertex="1">
          <mxGeometry x="1189" y="276.33" width="151" height="30" as="geometry" />
        </mxCell>
        <mxCell id="MJLlHMDSpS5lDLoSnXZj-172" value="First name: Joe" style="text;html=1;strokeColor=none;fillColor=none;align=center;verticalAlign=middle;whiteSpace=wrap;rounded=0;fontSize=14;" parent="1" vertex="1">
          <mxGeometry x="1191" y="330" width="100" height="30" as="geometry" />
        </mxCell>
        <mxCell id="MJLlHMDSpS5lDLoSnXZj-173" value="" style="endArrow=none;html=1;rounded=0;" parent="1" edge="1">
          <mxGeometry width="50" height="50" relative="1" as="geometry">
            <mxPoint x="1195.46" y="320" as="sourcePoint" />
            <mxPoint x="1427.46" y="320.42" as="targetPoint" />
          </mxGeometry>
        </mxCell>
        <mxCell id="MJLlHMDSpS5lDLoSnXZj-174" value="Surname: Bloggs" style="text;html=1;strokeColor=none;fillColor=none;align=center;verticalAlign=middle;whiteSpace=wrap;rounded=0;fontSize=14;" parent="1" vertex="1">
          <mxGeometry x="1191" y="360" width="110" height="30" as="geometry" />
        </mxCell>
        <mxCell id="MJLlHMDSpS5lDLoSnXZj-179" value="Location: Belfast, Some Road, 123" style="text;html=1;strokeColor=none;fillColor=none;align=center;verticalAlign=middle;whiteSpace=wrap;rounded=0;fontSize=14;" parent="1" vertex="1">
          <mxGeometry x="1191" y="390" width="219" height="30" as="geometry" />
        </mxCell>
        <mxCell id="MJLlHMDSpS5lDLoSnXZj-185" value="" style="verticalLabelPosition=bottom;verticalAlign=top;html=1;shadow=0;dashed=0;strokeWidth=1;shape=mxgraph.android.phone2;strokeColor=#c0c0c0;flipV=0;fillColor=#030303;" parent="1" vertex="1">
          <mxGeometry x="1530" y="40" width="307.69" height="600" as="geometry" />
        </mxCell>
        <mxCell id="MJLlHMDSpS5lDLoSnXZj-186" value="" style="endArrow=none;html=1;rounded=0;fontSize=14;" parent="1" edge="1">
          <mxGeometry width="50" height="50" relative="1" as="geometry">
            <mxPoint x="1536" y="138" as="sourcePoint" />
            <mxPoint x="1831.9999999999995" y="138" as="targetPoint" />
          </mxGeometry>
        </mxCell>
        <mxCell id="MJLlHMDSpS5lDLoSnXZj-187" value="" style="group" parent="1" vertex="1" connectable="0">
          <mxGeometry x="1628.85" y="102" width="118.29999999999998" height="30" as="geometry" />
        </mxCell>
        <mxCell id="MJLlHMDSpS5lDLoSnXZj-188" value="" style="rounded=0;whiteSpace=wrap;html=1;fillColor=#FFFFFF;" parent="MJLlHMDSpS5lDLoSnXZj-187" vertex="1">
          <mxGeometry x="1.1723955140041638e-13" width="109.99999999999987" height="28" as="geometry" />
        </mxCell>
        <mxCell id="MJLlHMDSpS5lDLoSnXZj-189" value="" style="endArrow=none;html=1;rounded=0;exitX=0;exitY=1;exitDx=0;exitDy=0;" parent="MJLlHMDSpS5lDLoSnXZj-187" source="MJLlHMDSpS5lDLoSnXZj-188" edge="1">
          <mxGeometry width="50" height="50" relative="1" as="geometry">
            <mxPoint x="41.25000000000007" y="17.5" as="sourcePoint" />
            <mxPoint x="110" as="targetPoint" />
          </mxGeometry>
        </mxCell>
        <mxCell id="MJLlHMDSpS5lDLoSnXZj-190" value="" style="endArrow=none;html=1;rounded=0;exitX=1;exitY=1;exitDx=0;exitDy=0;" parent="MJLlHMDSpS5lDLoSnXZj-187" source="MJLlHMDSpS5lDLoSnXZj-188" edge="1">
          <mxGeometry width="50" height="50" relative="1" as="geometry">
            <mxPoint x="-109.99999999999987" y="28" as="sourcePoint" />
            <mxPoint as="targetPoint" />
          </mxGeometry>
        </mxCell>
        <mxCell id="MJLlHMDSpS5lDLoSnXZj-191" value="Logo" style="text;html=1;strokeColor=none;fillColor=none;align=center;verticalAlign=middle;whiteSpace=wrap;rounded=0;fontSize=14;" parent="MJLlHMDSpS5lDLoSnXZj-187" vertex="1">
          <mxGeometry x="61.14999999999998" width="57.15" height="30" as="geometry" />
        </mxCell>
        <mxCell id="MJLlHMDSpS5lDLoSnXZj-192" value="Map Screen" style="text;html=1;strokeColor=none;fillColor=none;align=center;verticalAlign=middle;whiteSpace=wrap;rounded=0;fontSize=14;" parent="1" vertex="1">
          <mxGeometry x="1530" y="9.999999999999998" width="130" height="30" as="geometry" />
        </mxCell>
        <mxCell id="MJLlHMDSpS5lDLoSnXZj-193" value="" style="endArrow=none;html=1;rounded=0;" parent="1" edge="1">
          <mxGeometry width="50" height="50" relative="1" as="geometry">
            <mxPoint x="1534.3400000000001" y="588" as="sourcePoint" />
            <mxPoint x="1833.3399999999997" y="588" as="targetPoint" />
          </mxGeometry>
        </mxCell>
        <mxCell id="MJLlHMDSpS5lDLoSnXZj-194" value="" style="rounded=0;whiteSpace=wrap;html=1;" parent="1" vertex="1">
          <mxGeometry x="1540.5" y="546" width="287.5" height="44" as="geometry" />
        </mxCell>
        <mxCell id="MJLlHMDSpS5lDLoSnXZj-195" value="" style="group" parent="1" vertex="1" connectable="0">
          <mxGeometry x="1591" y="554" width="28" height="28" as="geometry" />
        </mxCell>
        <mxCell id="MJLlHMDSpS5lDLoSnXZj-196" value="" style="rounded=0;whiteSpace=wrap;html=1;fillColor=#FFFFFF;" parent="MJLlHMDSpS5lDLoSnXZj-195" vertex="1">
          <mxGeometry x="2.984279490192417e-14" width="27.999999999999968" height="28" as="geometry" />
        </mxCell>
        <mxCell id="MJLlHMDSpS5lDLoSnXZj-197" value="" style="endArrow=none;html=1;rounded=0;exitX=0;exitY=1;exitDx=0;exitDy=0;" parent="MJLlHMDSpS5lDLoSnXZj-195" source="MJLlHMDSpS5lDLoSnXZj-196" edge="1">
          <mxGeometry width="50" height="50" relative="1" as="geometry">
            <mxPoint x="10.500000000000018" y="17.5" as="sourcePoint" />
            <mxPoint x="28" as="targetPoint" />
          </mxGeometry>
        </mxCell>
        <mxCell id="MJLlHMDSpS5lDLoSnXZj-198" value="" style="endArrow=none;html=1;rounded=0;exitX=1;exitY=1;exitDx=0;exitDy=0;" parent="MJLlHMDSpS5lDLoSnXZj-195" source="MJLlHMDSpS5lDLoSnXZj-196" edge="1">
          <mxGeometry width="50" height="50" relative="1" as="geometry">
            <mxPoint x="-27.999999999999968" y="28" as="sourcePoint" />
            <mxPoint as="targetPoint" />
          </mxGeometry>
        </mxCell>
        <mxCell id="MJLlHMDSpS5lDLoSnXZj-199" value="" style="group" parent="1" vertex="1" connectable="0">
          <mxGeometry x="1642" y="554" width="28" height="28" as="geometry" />
        </mxCell>
        <mxCell id="MJLlHMDSpS5lDLoSnXZj-200" value="" style="rounded=0;whiteSpace=wrap;html=1;fillColor=#FFFFFF;" parent="MJLlHMDSpS5lDLoSnXZj-199" vertex="1">
          <mxGeometry x="2.984279490192417e-14" width="27.999999999999968" height="28" as="geometry" />
        </mxCell>
        <mxCell id="MJLlHMDSpS5lDLoSnXZj-201" value="" style="endArrow=none;html=1;rounded=0;exitX=0;exitY=1;exitDx=0;exitDy=0;" parent="MJLlHMDSpS5lDLoSnXZj-199" source="MJLlHMDSpS5lDLoSnXZj-200" edge="1">
          <mxGeometry width="50" height="50" relative="1" as="geometry">
            <mxPoint x="10.500000000000018" y="17.5" as="sourcePoint" />
            <mxPoint x="28" as="targetPoint" />
          </mxGeometry>
        </mxCell>
        <mxCell id="MJLlHMDSpS5lDLoSnXZj-202" value="" style="endArrow=none;html=1;rounded=0;exitX=1;exitY=1;exitDx=0;exitDy=0;" parent="MJLlHMDSpS5lDLoSnXZj-199" source="MJLlHMDSpS5lDLoSnXZj-200" edge="1">
          <mxGeometry width="50" height="50" relative="1" as="geometry">
            <mxPoint x="-27.999999999999968" y="28" as="sourcePoint" />
            <mxPoint as="targetPoint" />
          </mxGeometry>
        </mxCell>
        <mxCell id="MJLlHMDSpS5lDLoSnXZj-203" value="" style="group" parent="1" vertex="1" connectable="0">
          <mxGeometry x="1692" y="554" width="28" height="28" as="geometry" />
        </mxCell>
        <mxCell id="MJLlHMDSpS5lDLoSnXZj-204" value="" style="rounded=0;whiteSpace=wrap;html=1;fillColor=#FFFFFF;" parent="MJLlHMDSpS5lDLoSnXZj-203" vertex="1">
          <mxGeometry x="2.984279490192417e-14" width="27.999999999999968" height="28" as="geometry" />
        </mxCell>
        <mxCell id="MJLlHMDSpS5lDLoSnXZj-205" value="" style="endArrow=none;html=1;rounded=0;exitX=0;exitY=1;exitDx=0;exitDy=0;" parent="MJLlHMDSpS5lDLoSnXZj-203" source="MJLlHMDSpS5lDLoSnXZj-204" edge="1">
          <mxGeometry width="50" height="50" relative="1" as="geometry">
            <mxPoint x="10.500000000000018" y="17.5" as="sourcePoint" />
            <mxPoint x="28" as="targetPoint" />
          </mxGeometry>
        </mxCell>
        <mxCell id="MJLlHMDSpS5lDLoSnXZj-206" value="" style="endArrow=none;html=1;rounded=0;exitX=1;exitY=1;exitDx=0;exitDy=0;" parent="MJLlHMDSpS5lDLoSnXZj-203" source="MJLlHMDSpS5lDLoSnXZj-204" edge="1">
          <mxGeometry width="50" height="50" relative="1" as="geometry">
            <mxPoint x="-27.999999999999968" y="28" as="sourcePoint" />
            <mxPoint as="targetPoint" />
          </mxGeometry>
        </mxCell>
        <mxCell id="MJLlHMDSpS5lDLoSnXZj-207" value="" style="group" parent="1" vertex="1" connectable="0">
          <mxGeometry x="1742" y="554" width="28" height="28" as="geometry" />
        </mxCell>
        <mxCell id="MJLlHMDSpS5lDLoSnXZj-208" value="" style="rounded=0;whiteSpace=wrap;html=1;fillColor=#FFFFFF;" parent="MJLlHMDSpS5lDLoSnXZj-207" vertex="1">
          <mxGeometry x="2.984279490192417e-14" width="27.999999999999968" height="28" as="geometry" />
        </mxCell>
        <mxCell id="MJLlHMDSpS5lDLoSnXZj-209" value="" style="endArrow=none;html=1;rounded=0;exitX=0;exitY=1;exitDx=0;exitDy=0;" parent="MJLlHMDSpS5lDLoSnXZj-207" source="MJLlHMDSpS5lDLoSnXZj-208" edge="1">
          <mxGeometry width="50" height="50" relative="1" as="geometry">
            <mxPoint x="10.500000000000018" y="17.5" as="sourcePoint" />
            <mxPoint x="28" as="targetPoint" />
          </mxGeometry>
        </mxCell>
        <mxCell id="MJLlHMDSpS5lDLoSnXZj-210" value="" style="endArrow=none;html=1;rounded=0;exitX=1;exitY=1;exitDx=0;exitDy=0;" parent="MJLlHMDSpS5lDLoSnXZj-207" source="MJLlHMDSpS5lDLoSnXZj-208" edge="1">
          <mxGeometry width="50" height="50" relative="1" as="geometry">
            <mxPoint x="-27.999999999999968" y="28" as="sourcePoint" />
            <mxPoint as="targetPoint" />
          </mxGeometry>
        </mxCell>
        <mxCell id="MJLlHMDSpS5lDLoSnXZj-221" value="" style="verticalLabelPosition=bottom;verticalAlign=top;html=1;shadow=0;dashed=0;strokeWidth=1;shape=mxgraph.android.phone2;strokeColor=#c0c0c0;flipV=0;fillColor=#030303;" parent="1" vertex="1">
          <mxGeometry x="43.08" y="1420" width="307.69" height="600" as="geometry" />
        </mxCell>
        <mxCell id="MJLlHMDSpS5lDLoSnXZj-222" value="" style="endArrow=none;html=1;rounded=0;fontSize=14;" parent="1" edge="1">
          <mxGeometry width="50" height="50" relative="1" as="geometry">
            <mxPoint x="49.08" y="1518" as="sourcePoint" />
            <mxPoint x="345.08" y="1518" as="targetPoint" />
          </mxGeometry>
        </mxCell>
        <mxCell id="MJLlHMDSpS5lDLoSnXZj-223" value="" style="group" parent="1" vertex="1" connectable="0">
          <mxGeometry x="141.9299999999999" y="1482" width="118.29999999999998" height="30" as="geometry" />
        </mxCell>
        <mxCell id="MJLlHMDSpS5lDLoSnXZj-224" value="" style="rounded=0;whiteSpace=wrap;html=1;fillColor=#FFFFFF;" parent="MJLlHMDSpS5lDLoSnXZj-223" vertex="1">
          <mxGeometry x="1.1723955140041638e-13" width="109.99999999999987" height="28" as="geometry" />
        </mxCell>
        <mxCell id="MJLlHMDSpS5lDLoSnXZj-225" value="" style="endArrow=none;html=1;rounded=0;exitX=0;exitY=1;exitDx=0;exitDy=0;" parent="MJLlHMDSpS5lDLoSnXZj-223" source="MJLlHMDSpS5lDLoSnXZj-224" edge="1">
          <mxGeometry width="50" height="50" relative="1" as="geometry">
            <mxPoint x="41.25000000000007" y="17.5" as="sourcePoint" />
            <mxPoint x="110" as="targetPoint" />
          </mxGeometry>
        </mxCell>
        <mxCell id="MJLlHMDSpS5lDLoSnXZj-226" value="" style="endArrow=none;html=1;rounded=0;exitX=1;exitY=1;exitDx=0;exitDy=0;" parent="MJLlHMDSpS5lDLoSnXZj-223" source="MJLlHMDSpS5lDLoSnXZj-224" edge="1">
          <mxGeometry width="50" height="50" relative="1" as="geometry">
            <mxPoint x="-109.99999999999987" y="28" as="sourcePoint" />
            <mxPoint as="targetPoint" />
          </mxGeometry>
        </mxCell>
        <mxCell id="MJLlHMDSpS5lDLoSnXZj-227" value="Logo" style="text;html=1;strokeColor=none;fillColor=none;align=center;verticalAlign=middle;whiteSpace=wrap;rounded=0;fontSize=14;" parent="MJLlHMDSpS5lDLoSnXZj-223" vertex="1">
          <mxGeometry x="61.14999999999998" width="57.15" height="30" as="geometry" />
        </mxCell>
        <mxCell id="MJLlHMDSpS5lDLoSnXZj-228" value="App Template" style="text;html=1;strokeColor=none;fillColor=none;align=center;verticalAlign=middle;whiteSpace=wrap;rounded=0;fontSize=14;" parent="1" vertex="1">
          <mxGeometry x="43.08" y="1390" width="130" height="30" as="geometry" />
        </mxCell>
        <mxCell id="MJLlHMDSpS5lDLoSnXZj-229" value="" style="endArrow=none;html=1;rounded=0;" parent="1" edge="1">
          <mxGeometry width="50" height="50" relative="1" as="geometry">
            <mxPoint x="47.420000000000144" y="1968" as="sourcePoint" />
            <mxPoint x="346.42000000000013" y="1968" as="targetPoint" />
          </mxGeometry>
        </mxCell>
        <mxCell id="MJLlHMDSpS5lDLoSnXZj-230" value="" style="rounded=0;whiteSpace=wrap;html=1;" parent="1" vertex="1">
          <mxGeometry x="53.58" y="1926" width="287.5" height="44" as="geometry" />
        </mxCell>
        <mxCell id="MJLlHMDSpS5lDLoSnXZj-231" value="" style="group" parent="1" vertex="1" connectable="0">
          <mxGeometry x="104.08" y="1934" width="28" height="28" as="geometry" />
        </mxCell>
        <mxCell id="MJLlHMDSpS5lDLoSnXZj-232" value="" style="rounded=0;whiteSpace=wrap;html=1;fillColor=#FFFFFF;" parent="MJLlHMDSpS5lDLoSnXZj-231" vertex="1">
          <mxGeometry x="2.984279490192417e-14" width="27.999999999999968" height="28" as="geometry" />
        </mxCell>
        <mxCell id="MJLlHMDSpS5lDLoSnXZj-233" value="" style="endArrow=none;html=1;rounded=0;exitX=0;exitY=1;exitDx=0;exitDy=0;" parent="MJLlHMDSpS5lDLoSnXZj-231" source="MJLlHMDSpS5lDLoSnXZj-232" edge="1">
          <mxGeometry width="50" height="50" relative="1" as="geometry">
            <mxPoint x="10.500000000000018" y="17.5" as="sourcePoint" />
            <mxPoint x="28" as="targetPoint" />
          </mxGeometry>
        </mxCell>
        <mxCell id="MJLlHMDSpS5lDLoSnXZj-234" value="" style="endArrow=none;html=1;rounded=0;exitX=1;exitY=1;exitDx=0;exitDy=0;" parent="MJLlHMDSpS5lDLoSnXZj-231" source="MJLlHMDSpS5lDLoSnXZj-232" edge="1">
          <mxGeometry width="50" height="50" relative="1" as="geometry">
            <mxPoint x="-27.999999999999968" y="28" as="sourcePoint" />
            <mxPoint as="targetPoint" />
          </mxGeometry>
        </mxCell>
        <mxCell id="MJLlHMDSpS5lDLoSnXZj-235" value="" style="group" parent="1" vertex="1" connectable="0">
          <mxGeometry x="155.07999999999998" y="1934" width="28" height="28" as="geometry" />
        </mxCell>
        <mxCell id="MJLlHMDSpS5lDLoSnXZj-236" value="" style="rounded=0;whiteSpace=wrap;html=1;fillColor=#FFFFFF;" parent="MJLlHMDSpS5lDLoSnXZj-235" vertex="1">
          <mxGeometry x="2.984279490192417e-14" width="27.999999999999968" height="28" as="geometry" />
        </mxCell>
        <mxCell id="MJLlHMDSpS5lDLoSnXZj-237" value="" style="endArrow=none;html=1;rounded=0;exitX=0;exitY=1;exitDx=0;exitDy=0;" parent="MJLlHMDSpS5lDLoSnXZj-235" source="MJLlHMDSpS5lDLoSnXZj-236" edge="1">
          <mxGeometry width="50" height="50" relative="1" as="geometry">
            <mxPoint x="10.500000000000018" y="17.5" as="sourcePoint" />
            <mxPoint x="28" as="targetPoint" />
          </mxGeometry>
        </mxCell>
        <mxCell id="MJLlHMDSpS5lDLoSnXZj-238" value="" style="endArrow=none;html=1;rounded=0;exitX=1;exitY=1;exitDx=0;exitDy=0;" parent="MJLlHMDSpS5lDLoSnXZj-235" source="MJLlHMDSpS5lDLoSnXZj-236" edge="1">
          <mxGeometry width="50" height="50" relative="1" as="geometry">
            <mxPoint x="-27.999999999999968" y="28" as="sourcePoint" />
            <mxPoint as="targetPoint" />
          </mxGeometry>
        </mxCell>
        <mxCell id="MJLlHMDSpS5lDLoSnXZj-239" value="" style="group" parent="1" vertex="1" connectable="0">
          <mxGeometry x="205.07999999999998" y="1934" width="28" height="28" as="geometry" />
        </mxCell>
        <mxCell id="MJLlHMDSpS5lDLoSnXZj-240" value="" style="rounded=0;whiteSpace=wrap;html=1;fillColor=#FFFFFF;" parent="MJLlHMDSpS5lDLoSnXZj-239" vertex="1">
          <mxGeometry x="2.984279490192417e-14" width="27.999999999999968" height="28" as="geometry" />
        </mxCell>
        <mxCell id="MJLlHMDSpS5lDLoSnXZj-241" value="" style="endArrow=none;html=1;rounded=0;exitX=0;exitY=1;exitDx=0;exitDy=0;" parent="MJLlHMDSpS5lDLoSnXZj-239" source="MJLlHMDSpS5lDLoSnXZj-240" edge="1">
          <mxGeometry width="50" height="50" relative="1" as="geometry">
            <mxPoint x="10.500000000000018" y="17.5" as="sourcePoint" />
            <mxPoint x="28" as="targetPoint" />
          </mxGeometry>
        </mxCell>
        <mxCell id="MJLlHMDSpS5lDLoSnXZj-242" value="" style="endArrow=none;html=1;rounded=0;exitX=1;exitY=1;exitDx=0;exitDy=0;" parent="MJLlHMDSpS5lDLoSnXZj-239" source="MJLlHMDSpS5lDLoSnXZj-240" edge="1">
          <mxGeometry width="50" height="50" relative="1" as="geometry">
            <mxPoint x="-27.999999999999968" y="28" as="sourcePoint" />
            <mxPoint as="targetPoint" />
          </mxGeometry>
        </mxCell>
        <mxCell id="MJLlHMDSpS5lDLoSnXZj-243" value="" style="group" parent="1" vertex="1" connectable="0">
          <mxGeometry x="255.07999999999998" y="1934" width="28" height="28" as="geometry" />
        </mxCell>
        <mxCell id="MJLlHMDSpS5lDLoSnXZj-244" value="" style="rounded=0;whiteSpace=wrap;html=1;fillColor=#FFFFFF;" parent="MJLlHMDSpS5lDLoSnXZj-243" vertex="1">
          <mxGeometry x="2.984279490192417e-14" width="27.999999999999968" height="28" as="geometry" />
        </mxCell>
        <mxCell id="MJLlHMDSpS5lDLoSnXZj-245" value="" style="endArrow=none;html=1;rounded=0;exitX=0;exitY=1;exitDx=0;exitDy=0;" parent="MJLlHMDSpS5lDLoSnXZj-243" source="MJLlHMDSpS5lDLoSnXZj-244" edge="1">
          <mxGeometry width="50" height="50" relative="1" as="geometry">
            <mxPoint x="10.500000000000018" y="17.5" as="sourcePoint" />
            <mxPoint x="28" as="targetPoint" />
          </mxGeometry>
        </mxCell>
        <mxCell id="MJLlHMDSpS5lDLoSnXZj-246" value="" style="endArrow=none;html=1;rounded=0;exitX=1;exitY=1;exitDx=0;exitDy=0;" parent="MJLlHMDSpS5lDLoSnXZj-243" source="MJLlHMDSpS5lDLoSnXZj-244" edge="1">
          <mxGeometry width="50" height="50" relative="1" as="geometry">
            <mxPoint x="-27.999999999999968" y="28" as="sourcePoint" />
            <mxPoint as="targetPoint" />
          </mxGeometry>
        </mxCell>
        <mxCell id="MJLlHMDSpS5lDLoSnXZj-330" style="edgeStyle=orthogonalEdgeStyle;rounded=0;orthogonalLoop=1;jettySize=auto;html=1;exitX=1;exitY=0.5;exitDx=0;exitDy=0;fontSize=12;" parent="1" source="MJLlHMDSpS5lDLoSnXZj-247" target="MJLlHMDSpS5lDLoSnXZj-265" edge="1">
          <mxGeometry relative="1" as="geometry" />
        </mxCell>
        <mxCell id="MJLlHMDSpS5lDLoSnXZj-247" value="" style="whiteSpace=wrap;html=1;shadow=0;" parent="1" vertex="1">
          <mxGeometry x="1553" y="148" width="265" height="390" as="geometry" />
        </mxCell>
        <mxCell id="MJLlHMDSpS5lDLoSnXZj-248" value="Map" style="text;html=1;strokeColor=none;fillColor=none;align=center;verticalAlign=middle;whiteSpace=wrap;rounded=0;shadow=0;" parent="1" vertex="1">
          <mxGeometry x="1553" y="509" width="60" height="30" as="geometry" />
        </mxCell>
        <mxCell id="MJLlHMDSpS5lDLoSnXZj-249" value="" style="group" parent="1" vertex="1" connectable="0">
          <mxGeometry x="1610" y="420" width="28" height="28" as="geometry" />
        </mxCell>
        <mxCell id="MJLlHMDSpS5lDLoSnXZj-250" value="" style="rounded=0;whiteSpace=wrap;html=1;fillColor=#FFFFFF;" parent="MJLlHMDSpS5lDLoSnXZj-249" vertex="1">
          <mxGeometry x="2.984279490192417e-14" width="27.999999999999968" height="28" as="geometry" />
        </mxCell>
        <mxCell id="MJLlHMDSpS5lDLoSnXZj-251" value="" style="endArrow=none;html=1;rounded=0;exitX=0;exitY=1;exitDx=0;exitDy=0;" parent="MJLlHMDSpS5lDLoSnXZj-249" source="MJLlHMDSpS5lDLoSnXZj-250" edge="1">
          <mxGeometry width="50" height="50" relative="1" as="geometry">
            <mxPoint x="10.500000000000018" y="17.5" as="sourcePoint" />
            <mxPoint x="28" as="targetPoint" />
          </mxGeometry>
        </mxCell>
        <mxCell id="MJLlHMDSpS5lDLoSnXZj-252" value="" style="endArrow=none;html=1;rounded=0;exitX=1;exitY=1;exitDx=0;exitDy=0;" parent="MJLlHMDSpS5lDLoSnXZj-249" source="MJLlHMDSpS5lDLoSnXZj-250" edge="1">
          <mxGeometry width="50" height="50" relative="1" as="geometry">
            <mxPoint x="-27.999999999999968" y="28" as="sourcePoint" />
            <mxPoint as="targetPoint" />
          </mxGeometry>
        </mxCell>
        <mxCell id="MJLlHMDSpS5lDLoSnXZj-254" value="" style="group" parent="1" vertex="1" connectable="0">
          <mxGeometry x="1730" y="340" width="28" height="28" as="geometry" />
        </mxCell>
        <mxCell id="MJLlHMDSpS5lDLoSnXZj-255" value="" style="rounded=0;whiteSpace=wrap;html=1;fillColor=#FFFFFF;" parent="MJLlHMDSpS5lDLoSnXZj-254" vertex="1">
          <mxGeometry x="2.984279490192417e-14" width="27.999999999999968" height="28" as="geometry" />
        </mxCell>
        <mxCell id="MJLlHMDSpS5lDLoSnXZj-256" value="" style="endArrow=none;html=1;rounded=0;exitX=0;exitY=1;exitDx=0;exitDy=0;" parent="MJLlHMDSpS5lDLoSnXZj-254" source="MJLlHMDSpS5lDLoSnXZj-255" edge="1">
          <mxGeometry width="50" height="50" relative="1" as="geometry">
            <mxPoint x="10.500000000000018" y="17.5" as="sourcePoint" />
            <mxPoint x="28" as="targetPoint" />
          </mxGeometry>
        </mxCell>
        <mxCell id="MJLlHMDSpS5lDLoSnXZj-257" value="" style="endArrow=none;html=1;rounded=0;exitX=1;exitY=1;exitDx=0;exitDy=0;" parent="MJLlHMDSpS5lDLoSnXZj-254" source="MJLlHMDSpS5lDLoSnXZj-255" edge="1">
          <mxGeometry width="50" height="50" relative="1" as="geometry">
            <mxPoint x="-27.999999999999968" y="28" as="sourcePoint" />
            <mxPoint as="targetPoint" />
          </mxGeometry>
        </mxCell>
        <mxCell id="MJLlHMDSpS5lDLoSnXZj-258" value="" style="group" parent="1" vertex="1" connectable="0">
          <mxGeometry x="1630" y="240" width="28" height="28" as="geometry" />
        </mxCell>
        <mxCell id="MJLlHMDSpS5lDLoSnXZj-259" value="" style="rounded=0;whiteSpace=wrap;html=1;fillColor=#FFFFFF;" parent="MJLlHMDSpS5lDLoSnXZj-258" vertex="1">
          <mxGeometry x="2.984279490192417e-14" width="27.999999999999968" height="28" as="geometry" />
        </mxCell>
        <mxCell id="MJLlHMDSpS5lDLoSnXZj-260" value="" style="endArrow=none;html=1;rounded=0;exitX=0;exitY=1;exitDx=0;exitDy=0;" parent="MJLlHMDSpS5lDLoSnXZj-258" source="MJLlHMDSpS5lDLoSnXZj-259" edge="1">
          <mxGeometry width="50" height="50" relative="1" as="geometry">
            <mxPoint x="10.500000000000018" y="17.5" as="sourcePoint" />
            <mxPoint x="28" as="targetPoint" />
          </mxGeometry>
        </mxCell>
        <mxCell id="MJLlHMDSpS5lDLoSnXZj-261" value="" style="endArrow=none;html=1;rounded=0;exitX=1;exitY=1;exitDx=0;exitDy=0;" parent="MJLlHMDSpS5lDLoSnXZj-258" source="MJLlHMDSpS5lDLoSnXZj-259" edge="1">
          <mxGeometry width="50" height="50" relative="1" as="geometry">
            <mxPoint x="-27.999999999999968" y="28" as="sourcePoint" />
            <mxPoint as="targetPoint" />
          </mxGeometry>
        </mxCell>
        <mxCell id="MJLlHMDSpS5lDLoSnXZj-262" value="Pothole Location" style="text;html=1;strokeColor=none;fillColor=none;align=center;verticalAlign=middle;whiteSpace=wrap;rounded=0;shadow=0;" parent="1" vertex="1">
          <mxGeometry x="1610" y="390" width="60" height="30" as="geometry" />
        </mxCell>
        <mxCell id="MJLlHMDSpS5lDLoSnXZj-263" value="Pothole Location" style="text;html=1;strokeColor=none;fillColor=none;align=center;verticalAlign=middle;whiteSpace=wrap;rounded=0;shadow=0;" parent="1" vertex="1">
          <mxGeometry x="1730" y="310" width="60" height="30" as="geometry" />
        </mxCell>
        <mxCell id="MJLlHMDSpS5lDLoSnXZj-264" value="Pothole Location" style="text;html=1;strokeColor=none;fillColor=none;align=center;verticalAlign=middle;whiteSpace=wrap;rounded=0;shadow=0;" parent="1" vertex="1">
          <mxGeometry x="1630" y="210" width="60" height="30" as="geometry" />
        </mxCell>
        <mxCell id="MJLlHMDSpS5lDLoSnXZj-265" value="" style="verticalLabelPosition=bottom;verticalAlign=top;html=1;shadow=0;dashed=0;strokeWidth=1;shape=mxgraph.android.phone2;strokeColor=#c0c0c0;flipV=0;fillColor=#030303;" parent="1" vertex="1">
          <mxGeometry x="1892" y="40" width="307.69" height="600" as="geometry" />
        </mxCell>
        <mxCell id="MJLlHMDSpS5lDLoSnXZj-266" value="" style="endArrow=none;html=1;rounded=0;fontSize=14;" parent="1" edge="1">
          <mxGeometry width="50" height="50" relative="1" as="geometry">
            <mxPoint x="1898" y="138" as="sourcePoint" />
            <mxPoint x="2193.9999999999995" y="138" as="targetPoint" />
          </mxGeometry>
        </mxCell>
        <mxCell id="MJLlHMDSpS5lDLoSnXZj-267" value="" style="group" parent="1" vertex="1" connectable="0">
          <mxGeometry x="1990.85" y="102" width="118.29999999999998" height="30" as="geometry" />
        </mxCell>
        <mxCell id="MJLlHMDSpS5lDLoSnXZj-268" value="" style="rounded=0;whiteSpace=wrap;html=1;fillColor=#FFFFFF;" parent="MJLlHMDSpS5lDLoSnXZj-267" vertex="1">
          <mxGeometry x="1.1723955140041638e-13" width="109.99999999999987" height="28" as="geometry" />
        </mxCell>
        <mxCell id="MJLlHMDSpS5lDLoSnXZj-269" value="" style="endArrow=none;html=1;rounded=0;exitX=0;exitY=1;exitDx=0;exitDy=0;" parent="MJLlHMDSpS5lDLoSnXZj-267" source="MJLlHMDSpS5lDLoSnXZj-268" edge="1">
          <mxGeometry width="50" height="50" relative="1" as="geometry">
            <mxPoint x="41.25000000000007" y="17.5" as="sourcePoint" />
            <mxPoint x="110" as="targetPoint" />
          </mxGeometry>
        </mxCell>
        <mxCell id="MJLlHMDSpS5lDLoSnXZj-270" value="" style="endArrow=none;html=1;rounded=0;exitX=1;exitY=1;exitDx=0;exitDy=0;" parent="MJLlHMDSpS5lDLoSnXZj-267" source="MJLlHMDSpS5lDLoSnXZj-268" edge="1">
          <mxGeometry width="50" height="50" relative="1" as="geometry">
            <mxPoint x="-109.99999999999987" y="28" as="sourcePoint" />
            <mxPoint as="targetPoint" />
          </mxGeometry>
        </mxCell>
        <mxCell id="MJLlHMDSpS5lDLoSnXZj-271" value="Logo" style="text;html=1;strokeColor=none;fillColor=none;align=center;verticalAlign=middle;whiteSpace=wrap;rounded=0;fontSize=14;" parent="MJLlHMDSpS5lDLoSnXZj-267" vertex="1">
          <mxGeometry x="61.14999999999998" width="57.15" height="30" as="geometry" />
        </mxCell>
        <mxCell id="MJLlHMDSpS5lDLoSnXZj-272" value="Map Screen - Popup Modal" style="text;html=1;strokeColor=none;fillColor=none;align=center;verticalAlign=middle;whiteSpace=wrap;rounded=0;fontSize=14;" parent="1" vertex="1">
          <mxGeometry x="1892" y="10" width="130" height="30" as="geometry" />
        </mxCell>
        <mxCell id="MJLlHMDSpS5lDLoSnXZj-273" value="" style="endArrow=none;html=1;rounded=0;" parent="1" edge="1">
          <mxGeometry width="50" height="50" relative="1" as="geometry">
            <mxPoint x="1896.3400000000001" y="588" as="sourcePoint" />
            <mxPoint x="2195.3399999999997" y="588" as="targetPoint" />
          </mxGeometry>
        </mxCell>
        <mxCell id="MJLlHMDSpS5lDLoSnXZj-274" value="" style="rounded=0;whiteSpace=wrap;html=1;" parent="1" vertex="1">
          <mxGeometry x="1902.5" y="546" width="287.5" height="44" as="geometry" />
        </mxCell>
        <mxCell id="MJLlHMDSpS5lDLoSnXZj-275" value="" style="group" parent="1" vertex="1" connectable="0">
          <mxGeometry x="1953" y="554" width="28" height="28" as="geometry" />
        </mxCell>
        <mxCell id="MJLlHMDSpS5lDLoSnXZj-276" value="" style="rounded=0;whiteSpace=wrap;html=1;fillColor=#FFFFFF;" parent="MJLlHMDSpS5lDLoSnXZj-275" vertex="1">
          <mxGeometry x="2.984279490192417e-14" width="27.999999999999968" height="28" as="geometry" />
        </mxCell>
        <mxCell id="MJLlHMDSpS5lDLoSnXZj-277" value="" style="endArrow=none;html=1;rounded=0;exitX=0;exitY=1;exitDx=0;exitDy=0;" parent="MJLlHMDSpS5lDLoSnXZj-275" source="MJLlHMDSpS5lDLoSnXZj-276" edge="1">
          <mxGeometry width="50" height="50" relative="1" as="geometry">
            <mxPoint x="10.500000000000018" y="17.5" as="sourcePoint" />
            <mxPoint x="28" as="targetPoint" />
          </mxGeometry>
        </mxCell>
        <mxCell id="MJLlHMDSpS5lDLoSnXZj-278" value="" style="endArrow=none;html=1;rounded=0;exitX=1;exitY=1;exitDx=0;exitDy=0;" parent="MJLlHMDSpS5lDLoSnXZj-275" source="MJLlHMDSpS5lDLoSnXZj-276" edge="1">
          <mxGeometry width="50" height="50" relative="1" as="geometry">
            <mxPoint x="-27.999999999999968" y="28" as="sourcePoint" />
            <mxPoint as="targetPoint" />
          </mxGeometry>
        </mxCell>
        <mxCell id="MJLlHMDSpS5lDLoSnXZj-279" value="" style="group" parent="1" vertex="1" connectable="0">
          <mxGeometry x="2004" y="554" width="28" height="28" as="geometry" />
        </mxCell>
        <mxCell id="MJLlHMDSpS5lDLoSnXZj-280" value="" style="rounded=0;whiteSpace=wrap;html=1;fillColor=#FFFFFF;" parent="MJLlHMDSpS5lDLoSnXZj-279" vertex="1">
          <mxGeometry x="2.984279490192417e-14" width="27.999999999999968" height="28" as="geometry" />
        </mxCell>
        <mxCell id="MJLlHMDSpS5lDLoSnXZj-281" value="" style="endArrow=none;html=1;rounded=0;exitX=0;exitY=1;exitDx=0;exitDy=0;" parent="MJLlHMDSpS5lDLoSnXZj-279" source="MJLlHMDSpS5lDLoSnXZj-280" edge="1">
          <mxGeometry width="50" height="50" relative="1" as="geometry">
            <mxPoint x="10.500000000000018" y="17.5" as="sourcePoint" />
            <mxPoint x="28" as="targetPoint" />
          </mxGeometry>
        </mxCell>
        <mxCell id="MJLlHMDSpS5lDLoSnXZj-282" value="" style="endArrow=none;html=1;rounded=0;exitX=1;exitY=1;exitDx=0;exitDy=0;" parent="MJLlHMDSpS5lDLoSnXZj-279" source="MJLlHMDSpS5lDLoSnXZj-280" edge="1">
          <mxGeometry width="50" height="50" relative="1" as="geometry">
            <mxPoint x="-27.999999999999968" y="28" as="sourcePoint" />
            <mxPoint as="targetPoint" />
          </mxGeometry>
        </mxCell>
        <mxCell id="MJLlHMDSpS5lDLoSnXZj-283" value="" style="group" parent="1" vertex="1" connectable="0">
          <mxGeometry x="2054" y="554" width="28" height="28" as="geometry" />
        </mxCell>
        <mxCell id="MJLlHMDSpS5lDLoSnXZj-284" value="" style="rounded=0;whiteSpace=wrap;html=1;fillColor=#FFFFFF;" parent="MJLlHMDSpS5lDLoSnXZj-283" vertex="1">
          <mxGeometry x="2.984279490192417e-14" width="27.999999999999968" height="28" as="geometry" />
        </mxCell>
        <mxCell id="MJLlHMDSpS5lDLoSnXZj-285" value="" style="endArrow=none;html=1;rounded=0;exitX=0;exitY=1;exitDx=0;exitDy=0;" parent="MJLlHMDSpS5lDLoSnXZj-283" source="MJLlHMDSpS5lDLoSnXZj-284" edge="1">
          <mxGeometry width="50" height="50" relative="1" as="geometry">
            <mxPoint x="10.500000000000018" y="17.5" as="sourcePoint" />
            <mxPoint x="28" as="targetPoint" />
          </mxGeometry>
        </mxCell>
        <mxCell id="MJLlHMDSpS5lDLoSnXZj-286" value="" style="endArrow=none;html=1;rounded=0;exitX=1;exitY=1;exitDx=0;exitDy=0;" parent="MJLlHMDSpS5lDLoSnXZj-283" source="MJLlHMDSpS5lDLoSnXZj-284" edge="1">
          <mxGeometry width="50" height="50" relative="1" as="geometry">
            <mxPoint x="-27.999999999999968" y="28" as="sourcePoint" />
            <mxPoint as="targetPoint" />
          </mxGeometry>
        </mxCell>
        <mxCell id="MJLlHMDSpS5lDLoSnXZj-287" value="" style="group" parent="1" vertex="1" connectable="0">
          <mxGeometry x="2104" y="554" width="28" height="28" as="geometry" />
        </mxCell>
        <mxCell id="MJLlHMDSpS5lDLoSnXZj-288" value="" style="rounded=0;whiteSpace=wrap;html=1;fillColor=#FFFFFF;" parent="MJLlHMDSpS5lDLoSnXZj-287" vertex="1">
          <mxGeometry x="2.984279490192417e-14" width="27.999999999999968" height="28" as="geometry" />
        </mxCell>
        <mxCell id="MJLlHMDSpS5lDLoSnXZj-289" value="" style="endArrow=none;html=1;rounded=0;exitX=0;exitY=1;exitDx=0;exitDy=0;" parent="MJLlHMDSpS5lDLoSnXZj-287" source="MJLlHMDSpS5lDLoSnXZj-288" edge="1">
          <mxGeometry width="50" height="50" relative="1" as="geometry">
            <mxPoint x="10.500000000000018" y="17.5" as="sourcePoint" />
            <mxPoint x="28" as="targetPoint" />
          </mxGeometry>
        </mxCell>
        <mxCell id="MJLlHMDSpS5lDLoSnXZj-290" value="" style="endArrow=none;html=1;rounded=0;exitX=1;exitY=1;exitDx=0;exitDy=0;" parent="MJLlHMDSpS5lDLoSnXZj-287" source="MJLlHMDSpS5lDLoSnXZj-288" edge="1">
          <mxGeometry width="50" height="50" relative="1" as="geometry">
            <mxPoint x="-27.999999999999968" y="28" as="sourcePoint" />
            <mxPoint as="targetPoint" />
          </mxGeometry>
        </mxCell>
        <mxCell id="MJLlHMDSpS5lDLoSnXZj-291" value="" style="whiteSpace=wrap;html=1;shadow=0;" parent="1" vertex="1">
          <mxGeometry x="1915" y="148" width="265" height="390" as="geometry" />
        </mxCell>
        <mxCell id="MJLlHMDSpS5lDLoSnXZj-292" value="Map" style="text;html=1;strokeColor=none;fillColor=none;align=center;verticalAlign=middle;whiteSpace=wrap;rounded=0;shadow=0;" parent="1" vertex="1">
          <mxGeometry x="1915" y="509" width="60" height="30" as="geometry" />
        </mxCell>
        <mxCell id="MJLlHMDSpS5lDLoSnXZj-293" value="" style="group" parent="1" vertex="1" connectable="0">
          <mxGeometry x="1972" y="420" width="28" height="28" as="geometry" />
        </mxCell>
        <mxCell id="MJLlHMDSpS5lDLoSnXZj-294" value="" style="rounded=0;whiteSpace=wrap;html=1;fillColor=#FFFFFF;" parent="MJLlHMDSpS5lDLoSnXZj-293" vertex="1">
          <mxGeometry x="2.984279490192417e-14" width="27.999999999999968" height="28" as="geometry" />
        </mxCell>
        <mxCell id="MJLlHMDSpS5lDLoSnXZj-295" value="" style="endArrow=none;html=1;rounded=0;exitX=0;exitY=1;exitDx=0;exitDy=0;" parent="MJLlHMDSpS5lDLoSnXZj-293" source="MJLlHMDSpS5lDLoSnXZj-294" edge="1">
          <mxGeometry width="50" height="50" relative="1" as="geometry">
            <mxPoint x="10.500000000000018" y="17.5" as="sourcePoint" />
            <mxPoint x="28" as="targetPoint" />
          </mxGeometry>
        </mxCell>
        <mxCell id="MJLlHMDSpS5lDLoSnXZj-296" value="" style="endArrow=none;html=1;rounded=0;exitX=1;exitY=1;exitDx=0;exitDy=0;" parent="MJLlHMDSpS5lDLoSnXZj-293" source="MJLlHMDSpS5lDLoSnXZj-294" edge="1">
          <mxGeometry width="50" height="50" relative="1" as="geometry">
            <mxPoint x="-27.999999999999968" y="28" as="sourcePoint" />
            <mxPoint as="targetPoint" />
          </mxGeometry>
        </mxCell>
        <mxCell id="MJLlHMDSpS5lDLoSnXZj-297" value="" style="group" parent="1" vertex="1" connectable="0">
          <mxGeometry x="2092" y="340" width="28" height="28" as="geometry" />
        </mxCell>
        <mxCell id="MJLlHMDSpS5lDLoSnXZj-298" value="" style="rounded=0;whiteSpace=wrap;html=1;fillColor=#FFFFFF;" parent="MJLlHMDSpS5lDLoSnXZj-297" vertex="1">
          <mxGeometry x="2.984279490192417e-14" width="27.999999999999968" height="28" as="geometry" />
        </mxCell>
        <mxCell id="MJLlHMDSpS5lDLoSnXZj-299" value="" style="endArrow=none;html=1;rounded=0;exitX=0;exitY=1;exitDx=0;exitDy=0;" parent="MJLlHMDSpS5lDLoSnXZj-297" source="MJLlHMDSpS5lDLoSnXZj-298" edge="1">
          <mxGeometry width="50" height="50" relative="1" as="geometry">
            <mxPoint x="10.500000000000018" y="17.5" as="sourcePoint" />
            <mxPoint x="28" as="targetPoint" />
          </mxGeometry>
        </mxCell>
        <mxCell id="MJLlHMDSpS5lDLoSnXZj-300" value="" style="endArrow=none;html=1;rounded=0;exitX=1;exitY=1;exitDx=0;exitDy=0;" parent="MJLlHMDSpS5lDLoSnXZj-297" source="MJLlHMDSpS5lDLoSnXZj-298" edge="1">
          <mxGeometry width="50" height="50" relative="1" as="geometry">
            <mxPoint x="-27.999999999999968" y="28" as="sourcePoint" />
            <mxPoint as="targetPoint" />
          </mxGeometry>
        </mxCell>
        <mxCell id="MJLlHMDSpS5lDLoSnXZj-301" value="" style="group" parent="1" vertex="1" connectable="0">
          <mxGeometry x="1992" y="240" width="28" height="28" as="geometry" />
        </mxCell>
        <mxCell id="MJLlHMDSpS5lDLoSnXZj-302" value="" style="rounded=0;whiteSpace=wrap;html=1;fillColor=#FFFFFF;" parent="MJLlHMDSpS5lDLoSnXZj-301" vertex="1">
          <mxGeometry x="2.984279490192417e-14" width="27.999999999999968" height="28" as="geometry" />
        </mxCell>
        <mxCell id="MJLlHMDSpS5lDLoSnXZj-303" value="" style="endArrow=none;html=1;rounded=0;exitX=0;exitY=1;exitDx=0;exitDy=0;" parent="MJLlHMDSpS5lDLoSnXZj-301" source="MJLlHMDSpS5lDLoSnXZj-302" edge="1">
          <mxGeometry width="50" height="50" relative="1" as="geometry">
            <mxPoint x="10.500000000000018" y="17.5" as="sourcePoint" />
            <mxPoint x="28" as="targetPoint" />
          </mxGeometry>
        </mxCell>
        <mxCell id="MJLlHMDSpS5lDLoSnXZj-304" value="" style="endArrow=none;html=1;rounded=0;exitX=1;exitY=1;exitDx=0;exitDy=0;" parent="MJLlHMDSpS5lDLoSnXZj-301" source="MJLlHMDSpS5lDLoSnXZj-302" edge="1">
          <mxGeometry width="50" height="50" relative="1" as="geometry">
            <mxPoint x="-27.999999999999968" y="28" as="sourcePoint" />
            <mxPoint as="targetPoint" />
          </mxGeometry>
        </mxCell>
        <mxCell id="MJLlHMDSpS5lDLoSnXZj-305" value="Pothole Location" style="text;html=1;strokeColor=none;fillColor=none;align=center;verticalAlign=middle;whiteSpace=wrap;rounded=0;shadow=0;" parent="1" vertex="1">
          <mxGeometry x="1972" y="390" width="60" height="30" as="geometry" />
        </mxCell>
        <mxCell id="MJLlHMDSpS5lDLoSnXZj-306" value="Pothole Location" style="text;html=1;strokeColor=none;fillColor=none;align=center;verticalAlign=middle;whiteSpace=wrap;rounded=0;shadow=0;" parent="1" vertex="1">
          <mxGeometry x="2092" y="310" width="60" height="30" as="geometry" />
        </mxCell>
        <mxCell id="MJLlHMDSpS5lDLoSnXZj-307" value="Pothole Location" style="text;html=1;strokeColor=none;fillColor=none;align=center;verticalAlign=middle;whiteSpace=wrap;rounded=0;shadow=0;" parent="1" vertex="1">
          <mxGeometry x="1992" y="210" width="60" height="30" as="geometry" />
        </mxCell>
        <mxCell id="MJLlHMDSpS5lDLoSnXZj-308" value="" style="whiteSpace=wrap;html=1;shadow=0;" parent="1" vertex="1">
          <mxGeometry x="1935" y="166" width="225" height="354" as="geometry" />
        </mxCell>
        <mxCell id="MJLlHMDSpS5lDLoSnXZj-309" value="Popup Modal" style="text;html=1;strokeColor=none;fillColor=none;align=center;verticalAlign=middle;whiteSpace=wrap;rounded=0;shadow=0;" parent="1" vertex="1">
          <mxGeometry x="1935" y="489" width="60" height="30" as="geometry" />
        </mxCell>
        <mxCell id="MJLlHMDSpS5lDLoSnXZj-320" style="edgeStyle=orthogonalEdgeStyle;rounded=0;orthogonalLoop=1;jettySize=auto;html=1;fontSize=12;" parent="1" source="MJLlHMDSpS5lDLoSnXZj-310" target="MJLlHMDSpS5lDLoSnXZj-319" edge="1">
          <mxGeometry relative="1" as="geometry" />
        </mxCell>
        <mxCell id="MJLlHMDSpS5lDLoSnXZj-310" value="" style="rounded=0;whiteSpace=wrap;html=1;shadow=0;" parent="1" vertex="1">
          <mxGeometry x="1944.25" y="260" width="204" height="25" as="geometry" />
        </mxCell>
        <mxCell id="MJLlHMDSpS5lDLoSnXZj-311" value="Submit New Pothole" style="text;html=1;strokeColor=none;fillColor=none;align=center;verticalAlign=middle;whiteSpace=wrap;rounded=0;shadow=0;fontSize=14;fontStyle=1" parent="1" vertex="1">
          <mxGeometry x="1965" y="175" width="165" height="30" as="geometry" />
        </mxCell>
        <mxCell id="MJLlHMDSpS5lDLoSnXZj-313" value="Location" style="text;html=1;strokeColor=none;fillColor=none;align=left;verticalAlign=middle;whiteSpace=wrap;rounded=0;shadow=0;fontSize=14;" parent="1" vertex="1">
          <mxGeometry x="1943.85" y="210" width="106.15" height="25" as="geometry" />
        </mxCell>
        <mxCell id="MJLlHMDSpS5lDLoSnXZj-316" value="Latitude:" style="text;html=1;strokeColor=none;fillColor=none;align=left;verticalAlign=middle;whiteSpace=wrap;rounded=0;shadow=0;fontSize=12;" parent="1" vertex="1">
          <mxGeometry x="1943.85" y="235" width="106.15" height="25" as="geometry" />
        </mxCell>
        <mxCell id="MJLlHMDSpS5lDLoSnXZj-321" style="edgeStyle=orthogonalEdgeStyle;rounded=0;orthogonalLoop=1;jettySize=auto;html=1;entryX=0;entryY=0.5;entryDx=0;entryDy=0;fontSize=12;" parent="1" source="MJLlHMDSpS5lDLoSnXZj-317" target="MJLlHMDSpS5lDLoSnXZj-319" edge="1">
          <mxGeometry relative="1" as="geometry" />
        </mxCell>
        <mxCell id="MJLlHMDSpS5lDLoSnXZj-317" value="" style="rounded=0;whiteSpace=wrap;html=1;shadow=0;" parent="1" vertex="1">
          <mxGeometry x="1945.7" y="315" width="204" height="25" as="geometry" />
        </mxCell>
        <mxCell id="MJLlHMDSpS5lDLoSnXZj-318" value="Longitude:" style="text;html=1;strokeColor=none;fillColor=none;align=left;verticalAlign=middle;whiteSpace=wrap;rounded=0;shadow=0;fontSize=12;" parent="1" vertex="1">
          <mxGeometry x="1945.3" y="290" width="106.15" height="25" as="geometry" />
        </mxCell>
        <mxCell id="MJLlHMDSpS5lDLoSnXZj-319" value="These are preset from map selection, cannot be edited." style="text;html=1;strokeColor=none;fillColor=none;align=left;verticalAlign=middle;whiteSpace=wrap;rounded=0;shadow=0;fontSize=12;" parent="1" vertex="1">
          <mxGeometry x="2220" y="285" width="106.15" height="25" as="geometry" />
        </mxCell>
        <mxCell id="MJLlHMDSpS5lDLoSnXZj-322" value="" style="rounded=1;whiteSpace=wrap;html=1;shadow=0;fontSize=12;" parent="1" vertex="1">
          <mxGeometry x="1988.5" y="357" width="114.7" height="33" as="geometry" />
        </mxCell>
        <mxCell id="MJLlHMDSpS5lDLoSnXZj-323" value="Upload Picture" style="text;html=1;strokeColor=none;fillColor=none;align=left;verticalAlign=middle;whiteSpace=wrap;rounded=0;shadow=0;fontSize=12;" parent="1" vertex="1">
          <mxGeometry x="2002.1299999999999" y="361" width="86.15" height="25" as="geometry" />
        </mxCell>
        <mxCell id="MJLlHMDSpS5lDLoSnXZj-324" value="" style="group" parent="1" vertex="1" connectable="0">
          <mxGeometry x="2000" y="400" width="96.92" height="90" as="geometry" />
        </mxCell>
        <mxCell id="MJLlHMDSpS5lDLoSnXZj-325" value="" style="rounded=0;whiteSpace=wrap;html=1;fillColor=#FFFFFF;" parent="MJLlHMDSpS5lDLoSnXZj-324" vertex="1">
          <mxGeometry x="9.592450648849984e-14" width="90.00116076610553" height="90" as="geometry" />
        </mxCell>
        <mxCell id="MJLlHMDSpS5lDLoSnXZj-326" value="" style="endArrow=none;html=1;rounded=0;exitX=0;exitY=1;exitDx=0;exitDy=0;" parent="MJLlHMDSpS5lDLoSnXZj-324" source="MJLlHMDSpS5lDLoSnXZj-325" edge="1">
          <mxGeometry width="50" height="50" relative="1" as="geometry">
            <mxPoint x="33.750435287289676" y="56.25" as="sourcePoint" />
            <mxPoint x="90.00116076610563" as="targetPoint" />
          </mxGeometry>
        </mxCell>
        <mxCell id="MJLlHMDSpS5lDLoSnXZj-327" value="" style="endArrow=none;html=1;rounded=0;exitX=1;exitY=1;exitDx=0;exitDy=0;" parent="MJLlHMDSpS5lDLoSnXZj-324" source="MJLlHMDSpS5lDLoSnXZj-325" edge="1">
          <mxGeometry width="50" height="50" relative="1" as="geometry">
            <mxPoint x="-90.00116076610553" y="90" as="sourcePoint" />
            <mxPoint as="targetPoint" />
          </mxGeometry>
        </mxCell>
        <mxCell id="MJLlHMDSpS5lDLoSnXZj-328" value="&lt;div style=&quot;text-align: center;&quot;&gt;&lt;span style=&quot;background-color: initial; font-size: 14px;&quot;&gt;Thumbnail for picture&lt;/span&gt;&lt;/div&gt;" style="text;whiteSpace=wrap;html=1;" parent="MJLlHMDSpS5lDLoSnXZj-324" vertex="1">
          <mxGeometry x="20" y="50" width="47.5" height="28.75" as="geometry" />
        </mxCell>
        <mxCell id="_lPUvhK4c_NjwVxU-p-2-1" value="" style="verticalLabelPosition=bottom;verticalAlign=top;html=1;shadow=0;dashed=0;strokeWidth=1;shape=mxgraph.android.phone2;strokeColor=#c0c0c0;flipV=0;fillColor=#030303;" parent="1" vertex="1">
          <mxGeometry x="422.3" y="740" width="307.69" height="600" as="geometry" />
        </mxCell>
        <mxCell id="_lPUvhK4c_NjwVxU-p-2-2" value="" style="endArrow=none;html=1;rounded=0;fontSize=14;" parent="1" edge="1">
          <mxGeometry width="50" height="50" relative="1" as="geometry">
            <mxPoint x="423.3" y="1248" as="sourcePoint" />
            <mxPoint x="719.3" y="1248" as="targetPoint" />
          </mxGeometry>
        </mxCell>
        <mxCell id="_lPUvhK4c_NjwVxU-p-2-3" value="" style="group" parent="1" vertex="1" connectable="0">
          <mxGeometry x="483.3" y="1254" width="28" height="28" as="geometry" />
        </mxCell>
        <mxCell id="_lPUvhK4c_NjwVxU-p-2-4" value="" style="rounded=0;whiteSpace=wrap;html=1;fillColor=#FFFFFF;" parent="_lPUvhK4c_NjwVxU-p-2-3" vertex="1">
          <mxGeometry x="2.984279490192417e-14" width="27.999999999999968" height="28" as="geometry" />
        </mxCell>
        <mxCell id="_lPUvhK4c_NjwVxU-p-2-5" value="" style="endArrow=none;html=1;rounded=0;exitX=0;exitY=1;exitDx=0;exitDy=0;" parent="_lPUvhK4c_NjwVxU-p-2-3" source="_lPUvhK4c_NjwVxU-p-2-4" edge="1">
          <mxGeometry width="50" height="50" relative="1" as="geometry">
            <mxPoint x="10.500000000000018" y="17.5" as="sourcePoint" />
            <mxPoint x="28" as="targetPoint" />
          </mxGeometry>
        </mxCell>
        <mxCell id="_lPUvhK4c_NjwVxU-p-2-6" value="" style="endArrow=none;html=1;rounded=0;exitX=1;exitY=1;exitDx=0;exitDy=0;" parent="_lPUvhK4c_NjwVxU-p-2-3" source="_lPUvhK4c_NjwVxU-p-2-4" edge="1">
          <mxGeometry width="50" height="50" relative="1" as="geometry">
            <mxPoint x="-27.999999999999968" y="28" as="sourcePoint" />
            <mxPoint as="targetPoint" />
          </mxGeometry>
        </mxCell>
        <mxCell id="_lPUvhK4c_NjwVxU-p-2-7" value="" style="group" parent="1" vertex="1" connectable="0">
          <mxGeometry x="534.3" y="1254" width="28" height="28" as="geometry" />
        </mxCell>
        <mxCell id="_lPUvhK4c_NjwVxU-p-2-8" value="" style="rounded=0;whiteSpace=wrap;html=1;fillColor=#FFFFFF;" parent="_lPUvhK4c_NjwVxU-p-2-7" vertex="1">
          <mxGeometry x="2.984279490192417e-14" width="27.999999999999968" height="28" as="geometry" />
        </mxCell>
        <mxCell id="_lPUvhK4c_NjwVxU-p-2-9" value="" style="endArrow=none;html=1;rounded=0;exitX=0;exitY=1;exitDx=0;exitDy=0;" parent="_lPUvhK4c_NjwVxU-p-2-7" source="_lPUvhK4c_NjwVxU-p-2-8" edge="1">
          <mxGeometry width="50" height="50" relative="1" as="geometry">
            <mxPoint x="10.500000000000018" y="17.5" as="sourcePoint" />
            <mxPoint x="28" as="targetPoint" />
          </mxGeometry>
        </mxCell>
        <mxCell id="_lPUvhK4c_NjwVxU-p-2-10" value="" style="endArrow=none;html=1;rounded=0;exitX=1;exitY=1;exitDx=0;exitDy=0;" parent="_lPUvhK4c_NjwVxU-p-2-7" source="_lPUvhK4c_NjwVxU-p-2-8" edge="1">
          <mxGeometry width="50" height="50" relative="1" as="geometry">
            <mxPoint x="-27.999999999999968" y="28" as="sourcePoint" />
            <mxPoint as="targetPoint" />
          </mxGeometry>
        </mxCell>
        <mxCell id="_lPUvhK4c_NjwVxU-p-2-11" value="" style="group" parent="1" vertex="1" connectable="0">
          <mxGeometry x="584.3" y="1254" width="28" height="28" as="geometry" />
        </mxCell>
        <mxCell id="_lPUvhK4c_NjwVxU-p-2-12" value="" style="rounded=0;whiteSpace=wrap;html=1;fillColor=#FFFFFF;" parent="_lPUvhK4c_NjwVxU-p-2-11" vertex="1">
          <mxGeometry x="2.984279490192417e-14" width="27.999999999999968" height="28" as="geometry" />
        </mxCell>
        <mxCell id="_lPUvhK4c_NjwVxU-p-2-13" value="" style="endArrow=none;html=1;rounded=0;exitX=0;exitY=1;exitDx=0;exitDy=0;" parent="_lPUvhK4c_NjwVxU-p-2-11" source="_lPUvhK4c_NjwVxU-p-2-12" edge="1">
          <mxGeometry width="50" height="50" relative="1" as="geometry">
            <mxPoint x="10.500000000000018" y="17.5" as="sourcePoint" />
            <mxPoint x="28" as="targetPoint" />
          </mxGeometry>
        </mxCell>
        <mxCell id="_lPUvhK4c_NjwVxU-p-2-14" value="" style="endArrow=none;html=1;rounded=0;exitX=1;exitY=1;exitDx=0;exitDy=0;" parent="_lPUvhK4c_NjwVxU-p-2-11" source="_lPUvhK4c_NjwVxU-p-2-12" edge="1">
          <mxGeometry width="50" height="50" relative="1" as="geometry">
            <mxPoint x="-27.999999999999968" y="28" as="sourcePoint" />
            <mxPoint as="targetPoint" />
          </mxGeometry>
        </mxCell>
        <mxCell id="_lPUvhK4c_NjwVxU-p-2-15" value="" style="group" parent="1" vertex="1" connectable="0">
          <mxGeometry x="634.3" y="1254" width="28" height="28" as="geometry" />
        </mxCell>
        <mxCell id="_lPUvhK4c_NjwVxU-p-2-16" value="" style="rounded=0;whiteSpace=wrap;html=1;fillColor=#FFFFFF;" parent="_lPUvhK4c_NjwVxU-p-2-15" vertex="1">
          <mxGeometry x="2.984279490192417e-14" width="27.999999999999968" height="28" as="geometry" />
        </mxCell>
        <mxCell id="_lPUvhK4c_NjwVxU-p-2-17" value="" style="endArrow=none;html=1;rounded=0;exitX=0;exitY=1;exitDx=0;exitDy=0;" parent="_lPUvhK4c_NjwVxU-p-2-15" source="_lPUvhK4c_NjwVxU-p-2-16" edge="1">
          <mxGeometry width="50" height="50" relative="1" as="geometry">
            <mxPoint x="10.500000000000018" y="17.5" as="sourcePoint" />
            <mxPoint x="28" as="targetPoint" />
          </mxGeometry>
        </mxCell>
        <mxCell id="_lPUvhK4c_NjwVxU-p-2-18" value="" style="endArrow=none;html=1;rounded=0;exitX=1;exitY=1;exitDx=0;exitDy=0;" parent="_lPUvhK4c_NjwVxU-p-2-15" source="_lPUvhK4c_NjwVxU-p-2-16" edge="1">
          <mxGeometry width="50" height="50" relative="1" as="geometry">
            <mxPoint x="-27.999999999999968" y="28" as="sourcePoint" />
            <mxPoint as="targetPoint" />
          </mxGeometry>
        </mxCell>
        <mxCell id="_lPUvhK4c_NjwVxU-p-2-19" value="" style="endArrow=none;html=1;rounded=0;fontSize=14;" parent="1" edge="1">
          <mxGeometry width="50" height="50" relative="1" as="geometry">
            <mxPoint x="428.3" y="838" as="sourcePoint" />
            <mxPoint x="724.3" y="838" as="targetPoint" />
          </mxGeometry>
        </mxCell>
        <mxCell id="_lPUvhK4c_NjwVxU-p-2-20" value="" style="group" parent="1" vertex="1" connectable="0">
          <mxGeometry x="522.3" y="803" width="124.29999999999998" height="28" as="geometry" />
        </mxCell>
        <mxCell id="_lPUvhK4c_NjwVxU-p-2-21" value="" style="rounded=0;whiteSpace=wrap;html=1;fillColor=#FFFFFF;" parent="_lPUvhK4c_NjwVxU-p-2-20" vertex="1">
          <mxGeometry x="1.1723955140041638e-13" width="109.99999999999987" height="28" as="geometry" />
        </mxCell>
        <mxCell id="_lPUvhK4c_NjwVxU-p-2-22" value="" style="endArrow=none;html=1;rounded=0;exitX=0;exitY=1;exitDx=0;exitDy=0;" parent="_lPUvhK4c_NjwVxU-p-2-20" source="_lPUvhK4c_NjwVxU-p-2-21" edge="1">
          <mxGeometry width="50" height="50" relative="1" as="geometry">
            <mxPoint x="41.25000000000007" y="17.5" as="sourcePoint" />
            <mxPoint x="110" as="targetPoint" />
          </mxGeometry>
        </mxCell>
        <mxCell id="_lPUvhK4c_NjwVxU-p-2-23" value="" style="endArrow=none;html=1;rounded=0;exitX=1;exitY=1;exitDx=0;exitDy=0;" parent="_lPUvhK4c_NjwVxU-p-2-20" source="_lPUvhK4c_NjwVxU-p-2-21" edge="1">
          <mxGeometry width="50" height="50" relative="1" as="geometry">
            <mxPoint x="-109.99999999999987" y="28" as="sourcePoint" />
            <mxPoint as="targetPoint" />
          </mxGeometry>
        </mxCell>
        <mxCell id="_lPUvhK4c_NjwVxU-p-2-24" value="Logo" style="text;html=1;strokeColor=none;fillColor=none;align=center;verticalAlign=middle;whiteSpace=wrap;rounded=0;fontSize=14;" parent="_lPUvhK4c_NjwVxU-p-2-20" vertex="1">
          <mxGeometry x="55.99999999999998" y="-2" width="57.15" height="30" as="geometry" />
        </mxCell>
        <mxCell id="_lPUvhK4c_NjwVxU-p-2-25" value="Welcome &amp;lt;username&amp;gt;" style="text;html=1;strokeColor=none;fillColor=none;align=center;verticalAlign=middle;whiteSpace=wrap;rounded=0;fontSize=14;fontStyle=1" parent="1" vertex="1">
          <mxGeometry x="461.15000000000003" y="850" width="157.15" height="30" as="geometry" />
        </mxCell>
        <mxCell id="_lPUvhK4c_NjwVxU-p-2-26" value="" style="rounded=1;whiteSpace=wrap;html=1;fontSize=14;fillColor=#FFFFFF;" parent="1" vertex="1">
          <mxGeometry x="461.15000000000003" y="900" width="230" height="50" as="geometry" />
        </mxCell>
        <mxCell id="_lPUvhK4c_NjwVxU-p-2-27" value="Report new Pothole" style="text;html=1;strokeColor=none;fillColor=none;align=center;verticalAlign=middle;whiteSpace=wrap;rounded=0;fontSize=14;" parent="1" vertex="1">
          <mxGeometry x="502.65000000000003" y="910" width="147" height="30" as="geometry" />
        </mxCell>
        <mxCell id="_lPUvhK4c_NjwVxU-p-2-28" value="" style="rounded=1;whiteSpace=wrap;html=1;fontSize=14;fillColor=#FFFFFF;" parent="1" vertex="1">
          <mxGeometry x="461.15000000000003" y="960" width="230" height="50" as="geometry" />
        </mxCell>
        <mxCell id="_lPUvhK4c_NjwVxU-p-2-29" value="View all Potholes" style="text;html=1;strokeColor=none;fillColor=none;align=center;verticalAlign=middle;whiteSpace=wrap;rounded=0;fontSize=14;" parent="1" vertex="1">
          <mxGeometry x="502.65000000000003" y="970" width="147" height="30" as="geometry" />
        </mxCell>
        <mxCell id="_lPUvhK4c_NjwVxU-p-2-30" value="" style="rounded=1;whiteSpace=wrap;html=1;fontSize=14;fillColor=#FFFFFF;" parent="1" vertex="1">
          <mxGeometry x="461.15000000000003" y="1020" width="230" height="50" as="geometry" />
        </mxCell>
        <mxCell id="_lPUvhK4c_NjwVxU-p-2-31" value="My Potholes" style="text;html=1;strokeColor=none;fillColor=none;align=center;verticalAlign=middle;whiteSpace=wrap;rounded=0;fontSize=14;" parent="1" vertex="1">
          <mxGeometry x="502.65000000000003" y="1030" width="147" height="30" as="geometry" />
        </mxCell>
        <mxCell id="_lPUvhK4c_NjwVxU-p-2-32" value="Home Screen" style="text;html=1;strokeColor=none;fillColor=none;align=center;verticalAlign=middle;whiteSpace=wrap;rounded=0;fontSize=14;" parent="1" vertex="1">
          <mxGeometry x="422.3" y="710" width="100" height="30" as="geometry" />
        </mxCell>
        <mxCell id="_lPUvhK4c_NjwVxU-p-2-33" value="" style="rounded=1;whiteSpace=wrap;html=1;fontSize=14;fillColor=#FFFFFF;" parent="1" vertex="1">
          <mxGeometry x="459.22" y="1080" width="230" height="50" as="geometry" />
        </mxCell>
        <mxCell id="_lPUvhK4c_NjwVxU-p-2-34" value="Edit Reports (ADMIN)" style="text;html=1;strokeColor=none;fillColor=none;align=center;verticalAlign=middle;whiteSpace=wrap;rounded=0;fontSize=14;" parent="1" vertex="1">
          <mxGeometry x="500.72" y="1090" width="147" height="30" as="geometry" />
        </mxCell>
        <mxCell id="_lPUvhK4c_NjwVxU-p-2-35" value="" style="verticalLabelPosition=bottom;verticalAlign=top;html=1;shadow=0;dashed=0;strokeWidth=1;shape=mxgraph.android.phone2;strokeColor=#c0c0c0;flipV=0;fillColor=#030303;" parent="1" vertex="1">
          <mxGeometry x="800.5" y="740" width="307.69" height="600" as="geometry" />
        </mxCell>
        <mxCell id="_lPUvhK4c_NjwVxU-p-2-36" value="" style="endArrow=none;html=1;rounded=0;fontSize=14;" parent="1" edge="1">
          <mxGeometry width="50" height="50" relative="1" as="geometry">
            <mxPoint x="806.5" y="838" as="sourcePoint" />
            <mxPoint x="1102.5" y="838" as="targetPoint" />
          </mxGeometry>
        </mxCell>
        <mxCell id="_lPUvhK4c_NjwVxU-p-2-37" value="" style="group" parent="1" vertex="1" connectable="0">
          <mxGeometry x="899.3499999999999" y="802" width="118.29999999999998" height="30" as="geometry" />
        </mxCell>
        <mxCell id="_lPUvhK4c_NjwVxU-p-2-38" value="" style="rounded=0;whiteSpace=wrap;html=1;fillColor=#FFFFFF;" parent="_lPUvhK4c_NjwVxU-p-2-37" vertex="1">
          <mxGeometry x="1.1723955140041638e-13" width="109.99999999999987" height="28" as="geometry" />
        </mxCell>
        <mxCell id="_lPUvhK4c_NjwVxU-p-2-39" value="" style="endArrow=none;html=1;rounded=0;exitX=0;exitY=1;exitDx=0;exitDy=0;" parent="_lPUvhK4c_NjwVxU-p-2-37" source="_lPUvhK4c_NjwVxU-p-2-38" edge="1">
          <mxGeometry width="50" height="50" relative="1" as="geometry">
            <mxPoint x="41.25000000000007" y="17.5" as="sourcePoint" />
            <mxPoint x="110" as="targetPoint" />
          </mxGeometry>
        </mxCell>
        <mxCell id="_lPUvhK4c_NjwVxU-p-2-40" value="" style="endArrow=none;html=1;rounded=0;exitX=1;exitY=1;exitDx=0;exitDy=0;" parent="_lPUvhK4c_NjwVxU-p-2-37" source="_lPUvhK4c_NjwVxU-p-2-38" edge="1">
          <mxGeometry width="50" height="50" relative="1" as="geometry">
            <mxPoint x="-109.99999999999987" y="28" as="sourcePoint" />
            <mxPoint as="targetPoint" />
          </mxGeometry>
        </mxCell>
        <mxCell id="_lPUvhK4c_NjwVxU-p-2-41" value="Logo" style="text;html=1;strokeColor=none;fillColor=none;align=center;verticalAlign=middle;whiteSpace=wrap;rounded=0;fontSize=14;" parent="_lPUvhK4c_NjwVxU-p-2-37" vertex="1">
          <mxGeometry x="61.14999999999998" width="57.15" height="30" as="geometry" />
        </mxCell>
        <mxCell id="_lPUvhK4c_NjwVxU-p-2-42" value="Map Screen" style="text;html=1;strokeColor=none;fillColor=none;align=center;verticalAlign=middle;whiteSpace=wrap;rounded=0;fontSize=14;" parent="1" vertex="1">
          <mxGeometry x="800.5" y="710" width="130" height="30" as="geometry" />
        </mxCell>
        <mxCell id="_lPUvhK4c_NjwVxU-p-2-43" value="" style="endArrow=none;html=1;rounded=0;" parent="1" edge="1">
          <mxGeometry width="50" height="50" relative="1" as="geometry">
            <mxPoint x="804.8399999999997" y="1288" as="sourcePoint" />
            <mxPoint x="1103.8400000000001" y="1288" as="targetPoint" />
          </mxGeometry>
        </mxCell>
        <mxCell id="_lPUvhK4c_NjwVxU-p-2-44" value="" style="rounded=0;whiteSpace=wrap;html=1;" parent="1" vertex="1">
          <mxGeometry x="811" y="1246" width="287.5" height="44" as="geometry" />
        </mxCell>
        <mxCell id="_lPUvhK4c_NjwVxU-p-2-45" value="" style="group" parent="1" vertex="1" connectable="0">
          <mxGeometry x="861.5" y="1254" width="28" height="28" as="geometry" />
        </mxCell>
        <mxCell id="_lPUvhK4c_NjwVxU-p-2-46" value="" style="rounded=0;whiteSpace=wrap;html=1;fillColor=#FFFFFF;" parent="_lPUvhK4c_NjwVxU-p-2-45" vertex="1">
          <mxGeometry x="2.984279490192417e-14" width="27.999999999999968" height="28" as="geometry" />
        </mxCell>
        <mxCell id="_lPUvhK4c_NjwVxU-p-2-47" value="" style="endArrow=none;html=1;rounded=0;exitX=0;exitY=1;exitDx=0;exitDy=0;" parent="_lPUvhK4c_NjwVxU-p-2-45" source="_lPUvhK4c_NjwVxU-p-2-46" edge="1">
          <mxGeometry width="50" height="50" relative="1" as="geometry">
            <mxPoint x="10.500000000000018" y="17.5" as="sourcePoint" />
            <mxPoint x="28" as="targetPoint" />
          </mxGeometry>
        </mxCell>
        <mxCell id="_lPUvhK4c_NjwVxU-p-2-48" value="" style="endArrow=none;html=1;rounded=0;exitX=1;exitY=1;exitDx=0;exitDy=0;" parent="_lPUvhK4c_NjwVxU-p-2-45" source="_lPUvhK4c_NjwVxU-p-2-46" edge="1">
          <mxGeometry width="50" height="50" relative="1" as="geometry">
            <mxPoint x="-27.999999999999968" y="28" as="sourcePoint" />
            <mxPoint as="targetPoint" />
          </mxGeometry>
        </mxCell>
        <mxCell id="_lPUvhK4c_NjwVxU-p-2-49" value="" style="group" parent="1" vertex="1" connectable="0">
          <mxGeometry x="912.5" y="1254" width="28" height="28" as="geometry" />
        </mxCell>
        <mxCell id="_lPUvhK4c_NjwVxU-p-2-50" value="" style="rounded=0;whiteSpace=wrap;html=1;fillColor=#FFFFFF;" parent="_lPUvhK4c_NjwVxU-p-2-49" vertex="1">
          <mxGeometry x="2.984279490192417e-14" width="27.999999999999968" height="28" as="geometry" />
        </mxCell>
        <mxCell id="_lPUvhK4c_NjwVxU-p-2-51" value="" style="endArrow=none;html=1;rounded=0;exitX=0;exitY=1;exitDx=0;exitDy=0;" parent="_lPUvhK4c_NjwVxU-p-2-49" source="_lPUvhK4c_NjwVxU-p-2-50" edge="1">
          <mxGeometry width="50" height="50" relative="1" as="geometry">
            <mxPoint x="10.500000000000018" y="17.5" as="sourcePoint" />
            <mxPoint x="28" as="targetPoint" />
          </mxGeometry>
        </mxCell>
        <mxCell id="_lPUvhK4c_NjwVxU-p-2-52" value="" style="endArrow=none;html=1;rounded=0;exitX=1;exitY=1;exitDx=0;exitDy=0;" parent="_lPUvhK4c_NjwVxU-p-2-49" source="_lPUvhK4c_NjwVxU-p-2-50" edge="1">
          <mxGeometry width="50" height="50" relative="1" as="geometry">
            <mxPoint x="-27.999999999999968" y="28" as="sourcePoint" />
            <mxPoint as="targetPoint" />
          </mxGeometry>
        </mxCell>
        <mxCell id="_lPUvhK4c_NjwVxU-p-2-53" value="" style="group" parent="1" vertex="1" connectable="0">
          <mxGeometry x="962.5" y="1254" width="28" height="28" as="geometry" />
        </mxCell>
        <mxCell id="_lPUvhK4c_NjwVxU-p-2-54" value="" style="rounded=0;whiteSpace=wrap;html=1;fillColor=#FFFFFF;" parent="_lPUvhK4c_NjwVxU-p-2-53" vertex="1">
          <mxGeometry x="2.984279490192417e-14" width="27.999999999999968" height="28" as="geometry" />
        </mxCell>
        <mxCell id="_lPUvhK4c_NjwVxU-p-2-55" value="" style="endArrow=none;html=1;rounded=0;exitX=0;exitY=1;exitDx=0;exitDy=0;" parent="_lPUvhK4c_NjwVxU-p-2-53" source="_lPUvhK4c_NjwVxU-p-2-54" edge="1">
          <mxGeometry width="50" height="50" relative="1" as="geometry">
            <mxPoint x="10.500000000000018" y="17.5" as="sourcePoint" />
            <mxPoint x="28" as="targetPoint" />
          </mxGeometry>
        </mxCell>
        <mxCell id="_lPUvhK4c_NjwVxU-p-2-56" value="" style="endArrow=none;html=1;rounded=0;exitX=1;exitY=1;exitDx=0;exitDy=0;" parent="_lPUvhK4c_NjwVxU-p-2-53" source="_lPUvhK4c_NjwVxU-p-2-54" edge="1">
          <mxGeometry width="50" height="50" relative="1" as="geometry">
            <mxPoint x="-27.999999999999968" y="28" as="sourcePoint" />
            <mxPoint as="targetPoint" />
          </mxGeometry>
        </mxCell>
        <mxCell id="_lPUvhK4c_NjwVxU-p-2-57" value="" style="group" parent="1" vertex="1" connectable="0">
          <mxGeometry x="1012.5" y="1254" width="28" height="28" as="geometry" />
        </mxCell>
        <mxCell id="_lPUvhK4c_NjwVxU-p-2-58" value="" style="rounded=0;whiteSpace=wrap;html=1;fillColor=#FFFFFF;" parent="_lPUvhK4c_NjwVxU-p-2-57" vertex="1">
          <mxGeometry x="2.984279490192417e-14" width="27.999999999999968" height="28" as="geometry" />
        </mxCell>
        <mxCell id="_lPUvhK4c_NjwVxU-p-2-59" value="" style="endArrow=none;html=1;rounded=0;exitX=0;exitY=1;exitDx=0;exitDy=0;" parent="_lPUvhK4c_NjwVxU-p-2-57" source="_lPUvhK4c_NjwVxU-p-2-58" edge="1">
          <mxGeometry width="50" height="50" relative="1" as="geometry">
            <mxPoint x="10.500000000000018" y="17.5" as="sourcePoint" />
            <mxPoint x="28" as="targetPoint" />
          </mxGeometry>
        </mxCell>
        <mxCell id="_lPUvhK4c_NjwVxU-p-2-60" value="" style="endArrow=none;html=1;rounded=0;exitX=1;exitY=1;exitDx=0;exitDy=0;" parent="_lPUvhK4c_NjwVxU-p-2-57" source="_lPUvhK4c_NjwVxU-p-2-58" edge="1">
          <mxGeometry width="50" height="50" relative="1" as="geometry">
            <mxPoint x="-27.999999999999968" y="28" as="sourcePoint" />
            <mxPoint as="targetPoint" />
          </mxGeometry>
        </mxCell>
        <mxCell id="_lPUvhK4c_NjwVxU-p-2-61" value="" style="whiteSpace=wrap;html=1;shadow=0;" parent="1" vertex="1">
          <mxGeometry x="823.5" y="848" width="265" height="390" as="geometry" />
        </mxCell>
        <mxCell id="_lPUvhK4c_NjwVxU-p-2-62" value="Map" style="text;html=1;strokeColor=none;fillColor=none;align=center;verticalAlign=middle;whiteSpace=wrap;rounded=0;shadow=0;" parent="1" vertex="1">
          <mxGeometry x="823.5" y="1209" width="60" height="30" as="geometry" />
        </mxCell>
        <mxCell id="_lPUvhK4c_NjwVxU-p-2-63" value="" style="group" parent="1" vertex="1" connectable="0">
          <mxGeometry x="880.5" y="1120" width="28" height="28" as="geometry" />
        </mxCell>
        <mxCell id="_lPUvhK4c_NjwVxU-p-2-64" value="" style="rounded=0;whiteSpace=wrap;html=1;fillColor=#FFFFFF;" parent="_lPUvhK4c_NjwVxU-p-2-63" vertex="1">
          <mxGeometry x="2.984279490192417e-14" width="27.999999999999968" height="28" as="geometry" />
        </mxCell>
        <mxCell id="_lPUvhK4c_NjwVxU-p-2-65" value="" style="endArrow=none;html=1;rounded=0;exitX=0;exitY=1;exitDx=0;exitDy=0;" parent="_lPUvhK4c_NjwVxU-p-2-63" source="_lPUvhK4c_NjwVxU-p-2-64" edge="1">
          <mxGeometry width="50" height="50" relative="1" as="geometry">
            <mxPoint x="10.500000000000018" y="17.5" as="sourcePoint" />
            <mxPoint x="28" as="targetPoint" />
          </mxGeometry>
        </mxCell>
        <mxCell id="_lPUvhK4c_NjwVxU-p-2-66" value="" style="endArrow=none;html=1;rounded=0;exitX=1;exitY=1;exitDx=0;exitDy=0;" parent="_lPUvhK4c_NjwVxU-p-2-63" source="_lPUvhK4c_NjwVxU-p-2-64" edge="1">
          <mxGeometry width="50" height="50" relative="1" as="geometry">
            <mxPoint x="-27.999999999999968" y="28" as="sourcePoint" />
            <mxPoint as="targetPoint" />
          </mxGeometry>
        </mxCell>
        <mxCell id="_lPUvhK4c_NjwVxU-p-2-67" value="" style="group" parent="1" vertex="1" connectable="0">
          <mxGeometry x="1000.5" y="1040" width="28" height="28" as="geometry" />
        </mxCell>
        <mxCell id="_lPUvhK4c_NjwVxU-p-2-68" value="" style="rounded=0;whiteSpace=wrap;html=1;fillColor=#FFFFFF;" parent="_lPUvhK4c_NjwVxU-p-2-67" vertex="1">
          <mxGeometry x="2.984279490192417e-14" width="27.999999999999968" height="28" as="geometry" />
        </mxCell>
        <mxCell id="_lPUvhK4c_NjwVxU-p-2-69" value="" style="endArrow=none;html=1;rounded=0;exitX=0;exitY=1;exitDx=0;exitDy=0;" parent="_lPUvhK4c_NjwVxU-p-2-67" source="_lPUvhK4c_NjwVxU-p-2-68" edge="1">
          <mxGeometry width="50" height="50" relative="1" as="geometry">
            <mxPoint x="10.500000000000018" y="17.5" as="sourcePoint" />
            <mxPoint x="28" as="targetPoint" />
          </mxGeometry>
        </mxCell>
        <mxCell id="_lPUvhK4c_NjwVxU-p-2-70" value="" style="endArrow=none;html=1;rounded=0;exitX=1;exitY=1;exitDx=0;exitDy=0;" parent="_lPUvhK4c_NjwVxU-p-2-67" source="_lPUvhK4c_NjwVxU-p-2-68" edge="1">
          <mxGeometry width="50" height="50" relative="1" as="geometry">
            <mxPoint x="-27.999999999999968" y="28" as="sourcePoint" />
            <mxPoint as="targetPoint" />
          </mxGeometry>
        </mxCell>
        <mxCell id="_lPUvhK4c_NjwVxU-p-2-71" value="" style="group" parent="1" vertex="1" connectable="0">
          <mxGeometry x="900.5" y="940" width="28" height="28" as="geometry" />
        </mxCell>
        <mxCell id="_lPUvhK4c_NjwVxU-p-2-72" value="" style="rounded=0;whiteSpace=wrap;html=1;fillColor=#FFFFFF;" parent="_lPUvhK4c_NjwVxU-p-2-71" vertex="1">
          <mxGeometry x="2.984279490192417e-14" width="27.999999999999968" height="28" as="geometry" />
        </mxCell>
        <mxCell id="_lPUvhK4c_NjwVxU-p-2-73" value="" style="endArrow=none;html=1;rounded=0;exitX=0;exitY=1;exitDx=0;exitDy=0;" parent="_lPUvhK4c_NjwVxU-p-2-71" source="_lPUvhK4c_NjwVxU-p-2-72" edge="1">
          <mxGeometry width="50" height="50" relative="1" as="geometry">
            <mxPoint x="10.500000000000018" y="17.5" as="sourcePoint" />
            <mxPoint x="28" as="targetPoint" />
          </mxGeometry>
        </mxCell>
        <mxCell id="_lPUvhK4c_NjwVxU-p-2-74" value="" style="endArrow=none;html=1;rounded=0;exitX=1;exitY=1;exitDx=0;exitDy=0;" parent="_lPUvhK4c_NjwVxU-p-2-71" source="_lPUvhK4c_NjwVxU-p-2-72" edge="1">
          <mxGeometry width="50" height="50" relative="1" as="geometry">
            <mxPoint x="-27.999999999999968" y="28" as="sourcePoint" />
            <mxPoint as="targetPoint" />
          </mxGeometry>
        </mxCell>
        <mxCell id="_lPUvhK4c_NjwVxU-p-2-76" value="Pothole Location" style="text;html=1;strokeColor=none;fillColor=none;align=center;verticalAlign=middle;whiteSpace=wrap;rounded=0;shadow=0;" parent="1" vertex="1">
          <mxGeometry x="1000.5" y="1010" width="60" height="30" as="geometry" />
        </mxCell>
        <mxCell id="_lPUvhK4c_NjwVxU-p-2-77" value="Pothole Location" style="text;html=1;strokeColor=none;fillColor=none;align=center;verticalAlign=middle;whiteSpace=wrap;rounded=0;shadow=0;" parent="1" vertex="1">
          <mxGeometry x="900.5" y="910" width="60" height="30" as="geometry" />
        </mxCell>
        <mxCell id="_lPUvhK4c_NjwVxU-p-2-78" value="" style="shape=callout;whiteSpace=wrap;html=1;perimeter=calloutPerimeter;position2=0.46;" parent="1" vertex="1">
          <mxGeometry x="850" y="1040" width="130" height="90" as="geometry" />
        </mxCell>
        <mxCell id="_lPUvhK4c_NjwVxU-p-2-79" value="Delete" style="rounded=1;whiteSpace=wrap;html=1;" parent="1" vertex="1">
          <mxGeometry x="920.25" y="1076" width="55.5" height="18" as="geometry" />
        </mxCell>
        <mxCell id="_lPUvhK4c_NjwVxU-p-2-80" value="Update&amp;nbsp;" style="rounded=1;whiteSpace=wrap;html=1;" parent="1" vertex="1">
          <mxGeometry x="857" y="1076" width="55.5" height="18" as="geometry" />
        </mxCell>
        <mxCell id="_lPUvhK4c_NjwVxU-p-2-82" value="Status : CAUTION" style="text;html=1;strokeColor=none;fillColor=none;align=center;verticalAlign=middle;whiteSpace=wrap;rounded=0;fontSize=10;" parent="1" vertex="1">
          <mxGeometry x="861.5" y="1042" width="98.5" height="30" as="geometry" />
        </mxCell>
        <mxCell id="_lPUvhK4c_NjwVxU-p-2-86" value="" style="rounded=1;whiteSpace=wrap;html=1;fillColor=none;" parent="1" vertex="1">
          <mxGeometry x="855" y="1043" width="120" height="30" as="geometry" />
        </mxCell>
        <mxCell id="_lPUvhK4c_NjwVxU-p-2-85" value="" style="shape=image;html=1;verticalAlign=top;verticalLabelPosition=bottom;labelBackgroundColor=#ffffff;imageAspect=0;aspect=fixed;image=https://cdn1.iconfinder.com/data/icons/material-core/10/arrow-drop-down-128.png" parent="1" vertex="1">
          <mxGeometry x="955.5" y="1050.5" width="15" height="15" as="geometry" />
        </mxCell>
        <mxCell id="3lPimer0vRHufth0LN39-25" value="&lt;span style=&quot;color: rgba(0, 0, 0, 0); font-family: monospace; font-size: 0px; text-align: start;&quot;&gt;%3CmxGraphModel%3E%3Croot%3E%3CmxCell%20id%3D%220%22%2F%3E%3CmxCell%20id%3D%221%22%20parent%3D%220%22%2F%3E%3CmxCell%20id%3D%222%22%20value%3D%22%22%20style%3D%22group%22%20vertex%3D%221%22%20connectable%3D%220%22%20parent%3D%221%22%3E%3CmxGeometry%20x%3D%22141.9299999999999%22%20y%3D%221482%22%20width%3D%22118.29999999999998%22%20height%3D%2230%22%20as%3D%22geometry%22%2F%3E%3C%2FmxCell%3E%3CmxCell%20id%3D%223%22%20value%3D%22%22%20style%3D%22rounded%3D0%3BwhiteSpace%3Dwrap%3Bhtml%3D1%3BfillColor%3D%23FFFFFF%3B%22%20vertex%3D%221%22%20parent%3D%222%22%3E%3CmxGeometry%20x%3D%221.1723955140041638e-13%22%20width%3D%22109.99999999999987%22%20height%3D%2228%22%20as%3D%22geometry%22%2F%3E%3C%2FmxCell%3E%3CmxCell%20id%3D%224%22%20value%3D%22%22%20style%3D%22endArrow%3Dnone%3Bhtml%3D1%3Brounded%3D0%3BexitX%3D0%3BexitY%3D1%3BexitDx%3D0%3BexitDy%3D0%3B%22%20edge%3D%221%22%20parent%3D%222%22%20source%3D%223%22%3E%3CmxGeometry%20width%3D%2250%22%20height%3D%2250%22%20relative%3D%221%22%20as%3D%22geometry%22%3E%3CmxPoint%20x%3D%2241.25000000000007%22%20y%3D%2217.5%22%20as%3D%22sourcePoint%22%2F%3E%3CmxPoint%20x%3D%22110%22%20as%3D%22targetPoint%22%2F%3E%3C%2FmxGeometry%3E%3C%2FmxCell%3E%3CmxCell%20id%3D%225%22%20value%3D%22%22%20style%3D%22endArrow%3Dnone%3Bhtml%3D1%3Brounded%3D0%3BexitX%3D1%3BexitY%3D1%3BexitDx%3D0%3BexitDy%3D0%3B%22%20edge%3D%221%22%20parent%3D%222%22%20source%3D%223%22%3E%3CmxGeometry%20width%3D%2250%22%20height%3D%2250%22%20relative%3D%221%22%20as%3D%22geometry%22%3E%3CmxPoint%20x%3D%22-109.99999999999987%22%20y%3D%2228%22%20as%3D%22sourcePoint%22%2F%3E%3CmxPoint%20as%3D%22targetPoint%22%2F%3E%3C%2FmxGeometry%3E%3C%2FmxCell%3E%3CmxCell%20id%3D%226%22%20value%3D%22Logo%22%20style%3D%22text%3Bhtml%3D1%3BstrokeColor%3Dnone%3BfillColor%3Dnone%3Balign%3Dcenter%3BverticalAlign%3Dmiddle%3BwhiteSpace%3Dwrap%3Brounded%3D0%3BfontSize%3D14%3B%22%20vertex%3D%221%22%20parent%3D%222%22%3E%3CmxGeometry%20x%3D%2261.14999999999998%22%20width%3D%2257.15%22%20height%3D%2230%22%20as%3D%22geometry%22%2F%3E%3C%2FmxCell%3E%3CmxCell%20id%3D%227%22%20value%3D%22%22%20style%3D%22group%22%20vertex%3D%221%22%20connectable%3D%220%22%20parent%3D%221%22%3E%3CmxGeometry%20x%3D%22104.08%22%20y%3D%221934%22%20width%3D%2228%22%20height%3D%2228%22%20as%3D%22geometry%22%2F%3E%3C%2FmxCell%3E%3CmxCell%20id%3D%228%22%20value%3D%22%22%20style%3D%22rounded%3D0%3BwhiteSpace%3Dwrap%3Bhtml%3D1%3BfillColor%3D%23FFFFFF%3B%22%20vertex%3D%221%22%20parent%3D%227%22%3E%3CmxGeometry%20x%3D%222.984279490192417e-14%22%20width%3D%2227.999999999999968%22%20height%3D%2228%22%20as%3D%22geometry%22%2F%3E%3C%2FmxCell%3E%3CmxCell%20id%3D%229%22%20value%3D%22%22%20style%3D%22endArrow%3Dnone%3Bhtml%3D1%3Brounded%3D0%3BexitX%3D0%3BexitY%3D1%3BexitDx%3D0%3BexitDy%3D0%3B%22%20edge%3D%221%22%20parent%3D%227%22%20source%3D%228%22%3E%3CmxGeometry%20width%3D%2250%22%20height%3D%2250%22%20relative%3D%221%22%20as%3D%22geometry%22%3E%3CmxPoint%20x%3D%2210.500000000000018%22%20y%3D%2217.5%22%20as%3D%22sourcePoint%22%2F%3E%3CmxPoint%20x%3D%2228%22%20as%3D%22targetPoint%22%2F%3E%3C%2FmxGeometry%3E%3C%2FmxCell%3E%3CmxCell%20id%3D%2210%22%20value%3D%22%22%20style%3D%22endArrow%3Dnone%3Bhtml%3D1%3Brounded%3D0%3BexitX%3D1%3BexitY%3D1%3BexitDx%3D0%3BexitDy%3D0%3B%22%20edge%3D%221%22%20parent%3D%227%22%20source%3D%228%22%3E%3CmxGeometry%20width%3D%2250%22%20height%3D%2250%22%20relative%3D%221%22%20as%3D%22geometry%22%3E%3CmxPoint%20x%3D%22-27.999999999999968%22%20y%3D%2228%22%20as%3D%22sourcePoint%22%2F%3E%3CmxPoint%20as%3D%22targetPoint%22%2F%3E%3C%2FmxGeometry%3E%3C%2FmxCell%3E%3CmxCell%20id%3D%2211%22%20value%3D%22%22%20style%3D%22group%22%20vertex%3D%221%22%20connectable%3D%220%22%20parent%3D%221%22%3E%3CmxGeometry%20x%3D%22155.07999999999998%22%20y%3D%221934%22%20width%3D%2228%22%20height%3D%2228%22%20as%3D%22geometry%22%2F%3E%3C%2FmxCell%3E%3CmxCell%20id%3D%2212%22%20value%3D%22%22%20style%3D%22rounded%3D0%3BwhiteSpace%3Dwrap%3Bhtml%3D1%3BfillColor%3D%23FFFFFF%3B%22%20vertex%3D%221%22%20parent%3D%2211%22%3E%3CmxGeometry%20x%3D%222.984279490192417e-14%22%20width%3D%2227.999999999999968%22%20height%3D%2228%22%20as%3D%22geometry%22%2F%3E%3C%2FmxCell%3E%3CmxCell%20id%3D%2213%22%20value%3D%22%22%20style%3D%22endArrow%3Dnone%3Bhtml%3D1%3Brounded%3D0%3BexitX%3D0%3BexitY%3D1%3BexitDx%3D0%3BexitDy%3D0%3B%22%20edge%3D%221%22%20parent%3D%2211%22%20source%3D%2212%22%3E%3CmxGeometry%20width%3D%2250%22%20height%3D%2250%22%20relative%3D%221%22%20as%3D%22geometry%22%3E%3CmxPoint%20x%3D%2210.500000000000018%22%20y%3D%2217.5%22%20as%3D%22sourcePoint%22%2F%3E%3CmxPoint%20x%3D%2228%22%20as%3D%22targetPoint%22%2F%3E%3C%2FmxGeometry%3E%3C%2FmxCell%3E%3CmxCell%20id%3D%2214%22%20value%3D%22%22%20style%3D%22endArrow%3Dnone%3Bhtml%3D1%3Brounded%3D0%3BexitX%3D1%3BexitY%3D1%3BexitDx%3D0%3BexitDy%3D0%3B%22%20edge%3D%221%22%20parent%3D%2211%22%20source%3D%2212%22%3E%3CmxGeometry%20width%3D%2250%22%20height%3D%2250%22%20relative%3D%221%22%20as%3D%22geometry%22%3E%3CmxPoint%20x%3D%22-27.999999999999968%22%20y%3D%2228%22%20as%3D%22sourcePoint%22%2F%3E%3CmxPoint%20as%3D%22targetPoint%22%2F%3E%3C%2FmxGeometry%3E%3C%2FmxCell%3E%3CmxCell%20id%3D%2215%22%20value%3D%22%22%20style%3D%22group%22%20vertex%3D%221%22%20connectable%3D%220%22%20parent%3D%221%22%3E%3CmxGeometry%20x%3D%22205.07999999999998%22%20y%3D%221934%22%20width%3D%2228%22%20height%3D%2228%22%20as%3D%22geometry%22%2F%3E%3C%2FmxCell%3E%3CmxCell%20id%3D%2216%22%20value%3D%22%22%20style%3D%22rounded%3D0%3BwhiteSpace%3Dwrap%3Bhtml%3D1%3BfillColor%3D%23FFFFFF%3B%22%20vertex%3D%221%22%20parent%3D%2215%22%3E%3CmxGeometry%20x%3D%222.984279490192417e-14%22%20width%3D%2227.999999999999968%22%20height%3D%2228%22%20as%3D%22geometry%22%2F%3E%3C%2FmxCell%3E%3CmxCell%20id%3D%2217%22%20value%3D%22%22%20style%3D%22endArrow%3Dnone%3Bhtml%3D1%3Brounded%3D0%3BexitX%3D0%3BexitY%3D1%3BexitDx%3D0%3BexitDy%3D0%3B%22%20edge%3D%221%22%20parent%3D%2215%22%20source%3D%2216%22%3E%3CmxGeometry%20width%3D%2250%22%20height%3D%2250%22%20relative%3D%221%22%20as%3D%22geometry%22%3E%3CmxPoint%20x%3D%2210.500000000000018%22%20y%3D%2217.5%22%20as%3D%22sourcePoint%22%2F%3E%3CmxPoint%20x%3D%2228%22%20as%3D%22targetPoint%22%2F%3E%3C%2FmxGeometry%3E%3C%2FmxCell%3E%3CmxCell%20id%3D%2218%22%20value%3D%22%22%20style%3D%22endArrow%3Dnone%3Bhtml%3D1%3Brounded%3D0%3BexitX%3D1%3BexitY%3D1%3BexitDx%3D0%3BexitDy%3D0%3B%22%20edge%3D%221%22%20parent%3D%2215%22%20source%3D%2216%22%3E%3CmxGeometry%20width%3D%2250%22%20height%3D%2250%22%20relative%3D%221%22%20as%3D%22geometry%22%3E%3CmxPoint%20x%3D%22-27.999999999999968%22%20y%3D%2228%22%20as%3D%22sourcePoint%22%2F%3E%3CmxPoint%20as%3D%22targetPoint%22%2F%3E%3C%2FmxGeometry%3E%3C%2FmxCell%3E%3CmxCell%20id%3D%2219%22%20value%3D%22%22%20style%3D%22group%22%20vertex%3D%221%22%20connectable%3D%220%22%20parent%3D%221%22%3E%3CmxGeometry%20x%3D%22255.07999999999998%22%20y%3D%221934%22%20width%3D%2228%22%20height%3D%2228%22%20as%3D%22geometry%22%2F%3E%3C%2FmxCell%3E%3CmxCell%20id%3D%2220%22%20value%3D%22%22%20style%3D%22rounded%3D0%3BwhiteSpace%3Dwrap%3Bhtml%3D1%3BfillColor%3D%23FFFFFF%3B%22%20vertex%3D%221%22%20parent%3D%2219%22%3E%3CmxGeometry%20x%3D%222.984279490192417e-14%22%20width%3D%2227.999999999999968%22%20height%3D%2228%22%20as%3D%22geometry%22%2F%3E%3C%2FmxCell%3E%3CmxCell%20id%3D%2221%22%20value%3D%22%22%20style%3D%22endArrow%3Dnone%3Bhtml%3D1%3Brounded%3D0%3BexitX%3D0%3BexitY%3D1%3BexitDx%3D0%3BexitDy%3D0%3B%22%20edge%3D%221%22%20parent%3D%2219%22%20source%3D%2220%22%3E%3CmxGeometry%20width%3D%2250%22%20height%3D%2250%22%20relative%3D%221%22%20as%3D%22geometry%22%3E%3CmxPoint%20x%3D%2210.500000000000018%22%20y%3D%2217.5%22%20as%3D%22sourcePoint%22%2F%3E%3CmxPoint%20x%3D%2228%22%20as%3D%22targetPoint%22%2F%3E%3C%2FmxGeometry%3E%3C%2FmxCell%3E%3CmxCell%20id%3D%2222%22%20value%3D%22%22%20style%3D%22endArrow%3Dnone%3Bhtml%3D1%3Brounded%3D0%3BexitX%3D1%3BexitY%3D1%3BexitDx%3D0%3BexitDy%3D0%3B%22%20edge%3D%221%22%20parent%3D%2219%22%20source%3D%2220%22%3E%3CmxGeometry%20width%3D%2250%22%20height%3D%2250%22%20relative%3D%221%22%20as%3D%22geometry%22%3E%3CmxPoint%20x%3D%22-27.999999999999968%22%20y%3D%2228%22%20as%3D%22sourcePoint%22%2F%3E%3CmxPoint%20as%3D%22targetPoint%22%2F%3E%3C%2FmxGeometry%3E%3C%2FmxCell%3E%3C%2Froot%3E%3C%2FmxGraphModel%3E&lt;/span&gt;" style="text;html=1;align=center;verticalAlign=middle;resizable=0;points=[];autosize=1;strokeColor=none;fillColor=none;" vertex="1" parent="1">
          <mxGeometry x="720" y="1445" width="20" height="30" as="geometry" />
        </mxCell>
        <mxCell id="3lPimer0vRHufth0LN39-48" value="" style="verticalLabelPosition=bottom;verticalAlign=top;html=1;shadow=0;dashed=0;strokeWidth=1;shape=mxgraph.android.phone2;strokeColor=#c0c0c0;flipV=0;fillColor=#030303;" vertex="1" parent="1">
          <mxGeometry x="1210" y="755" width="307.69" height="600" as="geometry" />
        </mxCell>
        <mxCell id="3lPimer0vRHufth0LN39-49" value="" style="endArrow=none;html=1;rounded=0;fontSize=14;" edge="1" parent="1">
          <mxGeometry width="50" height="50" relative="1" as="geometry">
            <mxPoint x="1216" y="853" as="sourcePoint" />
            <mxPoint x="1512.0000000000002" y="853" as="targetPoint" />
          </mxGeometry>
        </mxCell>
        <mxCell id="3lPimer0vRHufth0LN39-50" value="" style="group" vertex="1" connectable="0" parent="1">
          <mxGeometry x="1308.85" y="817" width="118.29999999999998" height="30" as="geometry" />
        </mxCell>
        <mxCell id="3lPimer0vRHufth0LN39-51" value="" style="rounded=0;whiteSpace=wrap;html=1;fillColor=#FFFFFF;" vertex="1" parent="3lPimer0vRHufth0LN39-50">
          <mxGeometry x="1.1723955140041638e-13" width="109.99999999999987" height="28" as="geometry" />
        </mxCell>
        <mxCell id="3lPimer0vRHufth0LN39-52" value="" style="endArrow=none;html=1;rounded=0;exitX=0;exitY=1;exitDx=0;exitDy=0;" edge="1" parent="3lPimer0vRHufth0LN39-50" source="3lPimer0vRHufth0LN39-51">
          <mxGeometry width="50" height="50" relative="1" as="geometry">
            <mxPoint x="41.25000000000007" y="17.5" as="sourcePoint" />
            <mxPoint x="110" as="targetPoint" />
          </mxGeometry>
        </mxCell>
        <mxCell id="3lPimer0vRHufth0LN39-53" value="" style="endArrow=none;html=1;rounded=0;exitX=1;exitY=1;exitDx=0;exitDy=0;" edge="1" parent="3lPimer0vRHufth0LN39-50" source="3lPimer0vRHufth0LN39-51">
          <mxGeometry width="50" height="50" relative="1" as="geometry">
            <mxPoint x="-109.99999999999987" y="28" as="sourcePoint" />
            <mxPoint as="targetPoint" />
          </mxGeometry>
        </mxCell>
        <mxCell id="3lPimer0vRHufth0LN39-54" value="Logo" style="text;html=1;strokeColor=none;fillColor=none;align=center;verticalAlign=middle;whiteSpace=wrap;rounded=0;fontSize=14;" vertex="1" parent="3lPimer0vRHufth0LN39-50">
          <mxGeometry x="61.14999999999998" width="57.15" height="30" as="geometry" />
        </mxCell>
        <mxCell id="3lPimer0vRHufth0LN39-55" value="Worker Map" style="text;html=1;strokeColor=none;fillColor=none;align=center;verticalAlign=middle;whiteSpace=wrap;rounded=0;fontSize=14;" vertex="1" parent="1">
          <mxGeometry x="1210" y="725" width="130" height="30" as="geometry" />
        </mxCell>
        <mxCell id="3lPimer0vRHufth0LN39-56" value="" style="endArrow=none;html=1;rounded=0;" edge="1" parent="1">
          <mxGeometry width="50" height="50" relative="1" as="geometry">
            <mxPoint x="1214.3400000000001" y="1303" as="sourcePoint" />
            <mxPoint x="1513.3400000000004" y="1303" as="targetPoint" />
          </mxGeometry>
        </mxCell>
        <mxCell id="3lPimer0vRHufth0LN39-57" value="" style="rounded=0;whiteSpace=wrap;html=1;" vertex="1" parent="1">
          <mxGeometry x="1220.5" y="1261" width="287.5" height="44" as="geometry" />
        </mxCell>
        <mxCell id="3lPimer0vRHufth0LN39-58" value="" style="group" vertex="1" connectable="0" parent="1">
          <mxGeometry x="1271.0000000000002" y="1269" width="28" height="28" as="geometry" />
        </mxCell>
        <mxCell id="3lPimer0vRHufth0LN39-59" value="" style="rounded=0;whiteSpace=wrap;html=1;fillColor=#FFFFFF;" vertex="1" parent="3lPimer0vRHufth0LN39-58">
          <mxGeometry x="2.984279490192417e-14" width="27.999999999999968" height="28" as="geometry" />
        </mxCell>
        <mxCell id="3lPimer0vRHufth0LN39-60" value="" style="endArrow=none;html=1;rounded=0;exitX=0;exitY=1;exitDx=0;exitDy=0;" edge="1" parent="3lPimer0vRHufth0LN39-58" source="3lPimer0vRHufth0LN39-59">
          <mxGeometry width="50" height="50" relative="1" as="geometry">
            <mxPoint x="10.500000000000018" y="17.5" as="sourcePoint" />
            <mxPoint x="28" as="targetPoint" />
          </mxGeometry>
        </mxCell>
        <mxCell id="3lPimer0vRHufth0LN39-61" value="" style="endArrow=none;html=1;rounded=0;exitX=1;exitY=1;exitDx=0;exitDy=0;" edge="1" parent="3lPimer0vRHufth0LN39-58" source="3lPimer0vRHufth0LN39-59">
          <mxGeometry width="50" height="50" relative="1" as="geometry">
            <mxPoint x="-27.999999999999968" y="28" as="sourcePoint" />
            <mxPoint as="targetPoint" />
          </mxGeometry>
        </mxCell>
        <mxCell id="3lPimer0vRHufth0LN39-62" value="" style="group" vertex="1" connectable="0" parent="1">
          <mxGeometry x="1322" y="1269" width="28" height="28" as="geometry" />
        </mxCell>
        <mxCell id="3lPimer0vRHufth0LN39-63" value="" style="rounded=0;whiteSpace=wrap;html=1;fillColor=#FFFFFF;" vertex="1" parent="3lPimer0vRHufth0LN39-62">
          <mxGeometry x="2.984279490192417e-14" width="27.999999999999968" height="28" as="geometry" />
        </mxCell>
        <mxCell id="3lPimer0vRHufth0LN39-64" value="" style="endArrow=none;html=1;rounded=0;exitX=0;exitY=1;exitDx=0;exitDy=0;" edge="1" parent="3lPimer0vRHufth0LN39-62" source="3lPimer0vRHufth0LN39-63">
          <mxGeometry width="50" height="50" relative="1" as="geometry">
            <mxPoint x="10.500000000000018" y="17.5" as="sourcePoint" />
            <mxPoint x="28" as="targetPoint" />
          </mxGeometry>
        </mxCell>
        <mxCell id="3lPimer0vRHufth0LN39-65" value="" style="endArrow=none;html=1;rounded=0;exitX=1;exitY=1;exitDx=0;exitDy=0;" edge="1" parent="3lPimer0vRHufth0LN39-62" source="3lPimer0vRHufth0LN39-63">
          <mxGeometry width="50" height="50" relative="1" as="geometry">
            <mxPoint x="-27.999999999999968" y="28" as="sourcePoint" />
            <mxPoint as="targetPoint" />
          </mxGeometry>
        </mxCell>
        <mxCell id="3lPimer0vRHufth0LN39-66" value="" style="group" vertex="1" connectable="0" parent="1">
          <mxGeometry x="1372" y="1269" width="28" height="28" as="geometry" />
        </mxCell>
        <mxCell id="3lPimer0vRHufth0LN39-67" value="" style="rounded=0;whiteSpace=wrap;html=1;fillColor=#FFFFFF;" vertex="1" parent="3lPimer0vRHufth0LN39-66">
          <mxGeometry x="2.984279490192417e-14" width="27.999999999999968" height="28" as="geometry" />
        </mxCell>
        <mxCell id="3lPimer0vRHufth0LN39-68" value="" style="endArrow=none;html=1;rounded=0;exitX=0;exitY=1;exitDx=0;exitDy=0;" edge="1" parent="3lPimer0vRHufth0LN39-66" source="3lPimer0vRHufth0LN39-67">
          <mxGeometry width="50" height="50" relative="1" as="geometry">
            <mxPoint x="10.500000000000018" y="17.5" as="sourcePoint" />
            <mxPoint x="28" as="targetPoint" />
          </mxGeometry>
        </mxCell>
        <mxCell id="3lPimer0vRHufth0LN39-69" value="" style="endArrow=none;html=1;rounded=0;exitX=1;exitY=1;exitDx=0;exitDy=0;" edge="1" parent="3lPimer0vRHufth0LN39-66" source="3lPimer0vRHufth0LN39-67">
          <mxGeometry width="50" height="50" relative="1" as="geometry">
            <mxPoint x="-27.999999999999968" y="28" as="sourcePoint" />
            <mxPoint as="targetPoint" />
          </mxGeometry>
        </mxCell>
        <mxCell id="3lPimer0vRHufth0LN39-70" value="" style="group" vertex="1" connectable="0" parent="1">
          <mxGeometry x="1422.0000000000002" y="1269" width="28" height="28" as="geometry" />
        </mxCell>
        <mxCell id="3lPimer0vRHufth0LN39-71" value="" style="rounded=0;whiteSpace=wrap;html=1;fillColor=#FFFFFF;" vertex="1" parent="3lPimer0vRHufth0LN39-70">
          <mxGeometry x="2.984279490192417e-14" width="27.999999999999968" height="28" as="geometry" />
        </mxCell>
        <mxCell id="3lPimer0vRHufth0LN39-72" value="" style="endArrow=none;html=1;rounded=0;exitX=0;exitY=1;exitDx=0;exitDy=0;" edge="1" parent="3lPimer0vRHufth0LN39-70" source="3lPimer0vRHufth0LN39-71">
          <mxGeometry width="50" height="50" relative="1" as="geometry">
            <mxPoint x="10.500000000000018" y="17.5" as="sourcePoint" />
            <mxPoint x="28" as="targetPoint" />
          </mxGeometry>
        </mxCell>
        <mxCell id="3lPimer0vRHufth0LN39-73" value="" style="endArrow=none;html=1;rounded=0;exitX=1;exitY=1;exitDx=0;exitDy=0;" edge="1" parent="3lPimer0vRHufth0LN39-70" source="3lPimer0vRHufth0LN39-71">
          <mxGeometry width="50" height="50" relative="1" as="geometry">
            <mxPoint x="-27.999999999999968" y="28" as="sourcePoint" />
            <mxPoint as="targetPoint" />
          </mxGeometry>
        </mxCell>
        <mxCell id="3lPimer0vRHufth0LN39-74" value="" style="whiteSpace=wrap;html=1;shadow=0;" vertex="1" parent="1">
          <mxGeometry x="1231.34" y="866" width="265" height="380" as="geometry" />
        </mxCell>
        <mxCell id="3lPimer0vRHufth0LN39-75" value="" style="group" vertex="1" connectable="0" parent="1">
          <mxGeometry x="1285.69" y="1106" width="28" height="28" as="geometry" />
        </mxCell>
        <mxCell id="3lPimer0vRHufth0LN39-76" value="" style="rounded=0;whiteSpace=wrap;html=1;fillColor=#FFFFFF;" vertex="1" parent="3lPimer0vRHufth0LN39-75">
          <mxGeometry x="2.984279490192417e-14" width="27.999999999999968" height="28" as="geometry" />
        </mxCell>
        <mxCell id="3lPimer0vRHufth0LN39-77" value="" style="endArrow=none;html=1;rounded=0;exitX=0;exitY=1;exitDx=0;exitDy=0;" edge="1" parent="3lPimer0vRHufth0LN39-75" source="3lPimer0vRHufth0LN39-76">
          <mxGeometry width="50" height="50" relative="1" as="geometry">
            <mxPoint x="10.500000000000018" y="17.5" as="sourcePoint" />
            <mxPoint x="28" as="targetPoint" />
          </mxGeometry>
        </mxCell>
        <mxCell id="3lPimer0vRHufth0LN39-78" value="" style="endArrow=none;html=1;rounded=0;exitX=1;exitY=1;exitDx=0;exitDy=0;" edge="1" parent="3lPimer0vRHufth0LN39-75" source="3lPimer0vRHufth0LN39-76">
          <mxGeometry width="50" height="50" relative="1" as="geometry">
            <mxPoint x="-27.999999999999968" y="28" as="sourcePoint" />
            <mxPoint as="targetPoint" />
          </mxGeometry>
        </mxCell>
        <mxCell id="3lPimer0vRHufth0LN39-79" value="" style="group" vertex="1" connectable="0" parent="1">
          <mxGeometry x="1405.69" y="1026" width="28" height="28" as="geometry" />
        </mxCell>
        <mxCell id="3lPimer0vRHufth0LN39-80" value="" style="rounded=0;whiteSpace=wrap;html=1;fillColor=#FFFFFF;" vertex="1" parent="3lPimer0vRHufth0LN39-79">
          <mxGeometry x="2.984279490192417e-14" width="27.999999999999968" height="28" as="geometry" />
        </mxCell>
        <mxCell id="3lPimer0vRHufth0LN39-81" value="" style="endArrow=none;html=1;rounded=0;exitX=0;exitY=1;exitDx=0;exitDy=0;" edge="1" parent="3lPimer0vRHufth0LN39-79" source="3lPimer0vRHufth0LN39-80">
          <mxGeometry width="50" height="50" relative="1" as="geometry">
            <mxPoint x="10.500000000000018" y="17.5" as="sourcePoint" />
            <mxPoint x="28" as="targetPoint" />
          </mxGeometry>
        </mxCell>
        <mxCell id="3lPimer0vRHufth0LN39-82" value="" style="endArrow=none;html=1;rounded=0;exitX=1;exitY=1;exitDx=0;exitDy=0;" edge="1" parent="3lPimer0vRHufth0LN39-79" source="3lPimer0vRHufth0LN39-80">
          <mxGeometry width="50" height="50" relative="1" as="geometry">
            <mxPoint x="-27.999999999999968" y="28" as="sourcePoint" />
            <mxPoint as="targetPoint" />
          </mxGeometry>
        </mxCell>
        <mxCell id="3lPimer0vRHufth0LN39-83" value="" style="group" vertex="1" connectable="0" parent="1">
          <mxGeometry x="1305.69" y="926" width="28" height="28" as="geometry" />
        </mxCell>
        <mxCell id="3lPimer0vRHufth0LN39-84" value="" style="rounded=0;whiteSpace=wrap;html=1;fillColor=#FFFFFF;" vertex="1" parent="3lPimer0vRHufth0LN39-83">
          <mxGeometry x="2.984279490192417e-14" width="27.999999999999968" height="28" as="geometry" />
        </mxCell>
        <mxCell id="3lPimer0vRHufth0LN39-85" value="" style="endArrow=none;html=1;rounded=0;exitX=0;exitY=1;exitDx=0;exitDy=0;" edge="1" parent="3lPimer0vRHufth0LN39-83" source="3lPimer0vRHufth0LN39-84">
          <mxGeometry width="50" height="50" relative="1" as="geometry">
            <mxPoint x="10.500000000000018" y="17.5" as="sourcePoint" />
            <mxPoint x="28" as="targetPoint" />
          </mxGeometry>
        </mxCell>
        <mxCell id="3lPimer0vRHufth0LN39-86" value="" style="endArrow=none;html=1;rounded=0;exitX=1;exitY=1;exitDx=0;exitDy=0;" edge="1" parent="3lPimer0vRHufth0LN39-83" source="3lPimer0vRHufth0LN39-84">
          <mxGeometry width="50" height="50" relative="1" as="geometry">
            <mxPoint x="-27.999999999999968" y="28" as="sourcePoint" />
            <mxPoint as="targetPoint" />
          </mxGeometry>
        </mxCell>
        <mxCell id="3lPimer0vRHufth0LN39-87" value="Pothole Location" style="text;html=1;strokeColor=none;fillColor=none;align=center;verticalAlign=middle;whiteSpace=wrap;rounded=0;shadow=0;" vertex="1" parent="1">
          <mxGeometry x="1422" y="1055" width="60" height="30" as="geometry" />
        </mxCell>
        <mxCell id="3lPimer0vRHufth0LN39-95" value="" style="shape=callout;whiteSpace=wrap;html=1;perimeter=calloutPerimeter;position2=0.46;" vertex="1" parent="1">
          <mxGeometry x="1256.85" y="1029" width="130" height="90" as="geometry" />
        </mxCell>
        <mxCell id="3lPimer0vRHufth0LN39-88" value="Pothole Location" style="text;html=1;strokeColor=none;fillColor=none;align=center;verticalAlign=middle;whiteSpace=wrap;rounded=0;shadow=0;" vertex="1" parent="1">
          <mxGeometry x="1305.69" y="896" width="60" height="30" as="geometry" />
        </mxCell>
        <mxCell id="3lPimer0vRHufth0LN39-91" value="Update&amp;nbsp;" style="rounded=1;whiteSpace=wrap;html=1;" vertex="1" parent="1">
          <mxGeometry x="1292.5" y="1062" width="55.5" height="18" as="geometry" />
        </mxCell>
        <mxCell id="3lPimer0vRHufth0LN39-92" value="Status : Fixing" style="text;html=1;strokeColor=none;fillColor=none;align=center;verticalAlign=middle;whiteSpace=wrap;rounded=0;fontSize=10;" vertex="1" parent="1">
          <mxGeometry x="1266.69" y="1028" width="98.5" height="30" as="geometry" />
        </mxCell>
        <mxCell id="3lPimer0vRHufth0LN39-94" value="" style="shape=image;html=1;verticalAlign=top;verticalLabelPosition=bottom;labelBackgroundColor=#ffffff;imageAspect=0;aspect=fixed;image=https://cdn1.iconfinder.com/data/icons/material-core/10/arrow-drop-down-128.png" vertex="1" parent="1">
          <mxGeometry x="1360.69" y="1036.5" width="15" height="15" as="geometry" />
        </mxCell>
        <mxCell id="3lPimer0vRHufth0LN39-96" value="" style="verticalLabelPosition=bottom;verticalAlign=top;html=1;shadow=0;dashed=0;strokeWidth=1;shape=mxgraph.android.phone2;strokeColor=#c0c0c0;flipV=0;fillColor=#030303;" vertex="1" parent="1">
          <mxGeometry x="1594.81" y="770" width="307.69" height="600" as="geometry" />
        </mxCell>
        <mxCell id="3lPimer0vRHufth0LN39-97" value="" style="endArrow=none;html=1;rounded=0;fontSize=14;" edge="1" parent="1">
          <mxGeometry width="50" height="50" relative="1" as="geometry">
            <mxPoint x="1600.81" y="868" as="sourcePoint" />
            <mxPoint x="1896.81" y="868" as="targetPoint" />
          </mxGeometry>
        </mxCell>
        <mxCell id="3lPimer0vRHufth0LN39-98" value="" style="group" vertex="1" connectable="0" parent="1">
          <mxGeometry x="1693.6599999999999" y="832" width="118.29999999999998" height="30" as="geometry" />
        </mxCell>
        <mxCell id="3lPimer0vRHufth0LN39-99" value="" style="rounded=0;whiteSpace=wrap;html=1;fillColor=#FFFFFF;" vertex="1" parent="3lPimer0vRHufth0LN39-98">
          <mxGeometry x="1.1723955140041638e-13" width="109.99999999999987" height="28" as="geometry" />
        </mxCell>
        <mxCell id="3lPimer0vRHufth0LN39-100" value="" style="endArrow=none;html=1;rounded=0;exitX=0;exitY=1;exitDx=0;exitDy=0;" edge="1" parent="3lPimer0vRHufth0LN39-98" source="3lPimer0vRHufth0LN39-99">
          <mxGeometry width="50" height="50" relative="1" as="geometry">
            <mxPoint x="41.25000000000007" y="17.5" as="sourcePoint" />
            <mxPoint x="110" as="targetPoint" />
          </mxGeometry>
        </mxCell>
        <mxCell id="3lPimer0vRHufth0LN39-101" value="" style="endArrow=none;html=1;rounded=0;exitX=1;exitY=1;exitDx=0;exitDy=0;" edge="1" parent="3lPimer0vRHufth0LN39-98" source="3lPimer0vRHufth0LN39-99">
          <mxGeometry width="50" height="50" relative="1" as="geometry">
            <mxPoint x="-109.99999999999987" y="28" as="sourcePoint" />
            <mxPoint as="targetPoint" />
          </mxGeometry>
        </mxCell>
        <mxCell id="3lPimer0vRHufth0LN39-102" value="Logo" style="text;html=1;strokeColor=none;fillColor=none;align=center;verticalAlign=middle;whiteSpace=wrap;rounded=0;fontSize=14;" vertex="1" parent="3lPimer0vRHufth0LN39-98">
          <mxGeometry x="61.14999999999998" width="57.15" height="30" as="geometry" />
        </mxCell>
        <mxCell id="3lPimer0vRHufth0LN39-103" value="Worker Jobs" style="text;html=1;strokeColor=none;fillColor=none;align=center;verticalAlign=middle;whiteSpace=wrap;rounded=0;fontSize=14;" vertex="1" parent="1">
          <mxGeometry x="1594.81" y="740" width="130" height="30" as="geometry" />
        </mxCell>
        <mxCell id="3lPimer0vRHufth0LN39-104" value="" style="endArrow=none;html=1;rounded=0;" edge="1" parent="1">
          <mxGeometry width="50" height="50" relative="1" as="geometry">
            <mxPoint x="1599.15" y="1318" as="sourcePoint" />
            <mxPoint x="1898.15" y="1318" as="targetPoint" />
          </mxGeometry>
        </mxCell>
        <mxCell id="3lPimer0vRHufth0LN39-105" value="" style="rounded=0;whiteSpace=wrap;html=1;" vertex="1" parent="1">
          <mxGeometry x="1605.31" y="1276" width="287.5" height="44" as="geometry" />
        </mxCell>
        <mxCell id="3lPimer0vRHufth0LN39-106" value="" style="group" vertex="1" connectable="0" parent="1">
          <mxGeometry x="1655.8100000000002" y="1284" width="28" height="28" as="geometry" />
        </mxCell>
        <mxCell id="3lPimer0vRHufth0LN39-107" value="" style="rounded=0;whiteSpace=wrap;html=1;fillColor=#FFFFFF;" vertex="1" parent="3lPimer0vRHufth0LN39-106">
          <mxGeometry x="2.984279490192417e-14" width="27.999999999999968" height="28" as="geometry" />
        </mxCell>
        <mxCell id="3lPimer0vRHufth0LN39-108" value="" style="endArrow=none;html=1;rounded=0;exitX=0;exitY=1;exitDx=0;exitDy=0;" edge="1" parent="3lPimer0vRHufth0LN39-106" source="3lPimer0vRHufth0LN39-107">
          <mxGeometry width="50" height="50" relative="1" as="geometry">
            <mxPoint x="10.500000000000018" y="17.5" as="sourcePoint" />
            <mxPoint x="28" as="targetPoint" />
          </mxGeometry>
        </mxCell>
        <mxCell id="3lPimer0vRHufth0LN39-109" value="" style="endArrow=none;html=1;rounded=0;exitX=1;exitY=1;exitDx=0;exitDy=0;" edge="1" parent="3lPimer0vRHufth0LN39-106" source="3lPimer0vRHufth0LN39-107">
          <mxGeometry width="50" height="50" relative="1" as="geometry">
            <mxPoint x="-27.999999999999968" y="28" as="sourcePoint" />
            <mxPoint as="targetPoint" />
          </mxGeometry>
        </mxCell>
        <mxCell id="3lPimer0vRHufth0LN39-110" value="" style="group" vertex="1" connectable="0" parent="1">
          <mxGeometry x="1706.81" y="1284" width="28" height="28" as="geometry" />
        </mxCell>
        <mxCell id="3lPimer0vRHufth0LN39-111" value="" style="rounded=0;whiteSpace=wrap;html=1;fillColor=#FFFFFF;" vertex="1" parent="3lPimer0vRHufth0LN39-110">
          <mxGeometry x="2.984279490192417e-14" width="27.999999999999968" height="28" as="geometry" />
        </mxCell>
        <mxCell id="3lPimer0vRHufth0LN39-112" value="" style="endArrow=none;html=1;rounded=0;exitX=0;exitY=1;exitDx=0;exitDy=0;" edge="1" parent="3lPimer0vRHufth0LN39-110" source="3lPimer0vRHufth0LN39-111">
          <mxGeometry width="50" height="50" relative="1" as="geometry">
            <mxPoint x="10.500000000000018" y="17.5" as="sourcePoint" />
            <mxPoint x="28" as="targetPoint" />
          </mxGeometry>
        </mxCell>
        <mxCell id="3lPimer0vRHufth0LN39-113" value="" style="endArrow=none;html=1;rounded=0;exitX=1;exitY=1;exitDx=0;exitDy=0;" edge="1" parent="3lPimer0vRHufth0LN39-110" source="3lPimer0vRHufth0LN39-111">
          <mxGeometry width="50" height="50" relative="1" as="geometry">
            <mxPoint x="-27.999999999999968" y="28" as="sourcePoint" />
            <mxPoint as="targetPoint" />
          </mxGeometry>
        </mxCell>
        <mxCell id="3lPimer0vRHufth0LN39-114" value="" style="group" vertex="1" connectable="0" parent="1">
          <mxGeometry x="1756.81" y="1284" width="28" height="28" as="geometry" />
        </mxCell>
        <mxCell id="3lPimer0vRHufth0LN39-115" value="" style="rounded=0;whiteSpace=wrap;html=1;fillColor=#FFFFFF;" vertex="1" parent="3lPimer0vRHufth0LN39-114">
          <mxGeometry x="2.984279490192417e-14" width="27.999999999999968" height="28" as="geometry" />
        </mxCell>
        <mxCell id="3lPimer0vRHufth0LN39-116" value="" style="endArrow=none;html=1;rounded=0;exitX=0;exitY=1;exitDx=0;exitDy=0;" edge="1" parent="3lPimer0vRHufth0LN39-114" source="3lPimer0vRHufth0LN39-115">
          <mxGeometry width="50" height="50" relative="1" as="geometry">
            <mxPoint x="10.500000000000018" y="17.5" as="sourcePoint" />
            <mxPoint x="28" as="targetPoint" />
          </mxGeometry>
        </mxCell>
        <mxCell id="3lPimer0vRHufth0LN39-117" value="" style="endArrow=none;html=1;rounded=0;exitX=1;exitY=1;exitDx=0;exitDy=0;" edge="1" parent="3lPimer0vRHufth0LN39-114" source="3lPimer0vRHufth0LN39-115">
          <mxGeometry width="50" height="50" relative="1" as="geometry">
            <mxPoint x="-27.999999999999968" y="28" as="sourcePoint" />
            <mxPoint as="targetPoint" />
          </mxGeometry>
        </mxCell>
        <mxCell id="3lPimer0vRHufth0LN39-118" value="" style="group" vertex="1" connectable="0" parent="1">
          <mxGeometry x="1806.8100000000002" y="1284" width="28" height="28" as="geometry" />
        </mxCell>
        <mxCell id="3lPimer0vRHufth0LN39-119" value="" style="rounded=0;whiteSpace=wrap;html=1;fillColor=#FFFFFF;" vertex="1" parent="3lPimer0vRHufth0LN39-118">
          <mxGeometry x="2.984279490192417e-14" width="27.999999999999968" height="28" as="geometry" />
        </mxCell>
        <mxCell id="3lPimer0vRHufth0LN39-120" value="" style="endArrow=none;html=1;rounded=0;exitX=0;exitY=1;exitDx=0;exitDy=0;" edge="1" parent="3lPimer0vRHufth0LN39-118" source="3lPimer0vRHufth0LN39-119">
          <mxGeometry width="50" height="50" relative="1" as="geometry">
            <mxPoint x="10.500000000000018" y="17.5" as="sourcePoint" />
            <mxPoint x="28" as="targetPoint" />
          </mxGeometry>
        </mxCell>
        <mxCell id="3lPimer0vRHufth0LN39-121" value="" style="endArrow=none;html=1;rounded=0;exitX=1;exitY=1;exitDx=0;exitDy=0;" edge="1" parent="3lPimer0vRHufth0LN39-118" source="3lPimer0vRHufth0LN39-119">
          <mxGeometry width="50" height="50" relative="1" as="geometry">
            <mxPoint x="-27.999999999999968" y="28" as="sourcePoint" />
            <mxPoint as="targetPoint" />
          </mxGeometry>
        </mxCell>
        <mxCell id="3lPimer0vRHufth0LN39-141" value="Job 1&lt;br&gt;Location:" style="rounded=1;whiteSpace=wrap;html=1;" vertex="1" parent="1">
          <mxGeometry x="1636.81" y="900" width="120" height="60" as="geometry" />
        </mxCell>
        <mxCell id="3lPimer0vRHufth0LN39-142" value="Job 2&lt;br&gt;Location:" style="rounded=1;whiteSpace=wrap;html=1;" vertex="1" parent="1">
          <mxGeometry x="1636.81" y="990.5" width="120" height="60" as="geometry" />
        </mxCell>
        <mxCell id="3lPimer0vRHufth0LN39-143" value="Job 3&lt;br&gt;Location:" style="rounded=1;whiteSpace=wrap;html=1;" vertex="1" parent="1">
          <mxGeometry x="1636.81" y="1080" width="120" height="60" as="geometry" />
        </mxCell>
        <mxCell id="3lPimer0vRHufth0LN39-144" value="Job 4&lt;br&gt;Location:" style="rounded=1;whiteSpace=wrap;html=1;" vertex="1" parent="1">
          <mxGeometry x="1638" y="1160" width="120" height="60" as="geometry" />
        </mxCell>
        <mxCell id="3lPimer0vRHufth0LN39-146" value="" style="shape=image;html=1;verticalAlign=top;verticalLabelPosition=bottom;labelBackgroundColor=#ffffff;imageAspect=0;aspect=fixed;image=https://cdn3.iconfinder.com/data/icons/miscellaneous-80/60/check-128.png" vertex="1" parent="1">
          <mxGeometry x="1803.56" y="904.5" width="51" height="51" as="geometry" />
        </mxCell>
        <mxCell id="3lPimer0vRHufth0LN39-147" value="" style="shape=image;html=1;verticalAlign=top;verticalLabelPosition=bottom;labelBackgroundColor=#ffffff;imageAspect=0;aspect=fixed;image=https://cdn3.iconfinder.com/data/icons/miscellaneous-80/60/check-128.png" vertex="1" parent="1">
          <mxGeometry x="1803.56" y="991" width="51" height="51" as="geometry" />
        </mxCell>
        <mxCell id="3lPimer0vRHufth0LN39-148" value="" style="shape=image;html=1;verticalAlign=top;verticalLabelPosition=bottom;labelBackgroundColor=#ffffff;imageAspect=0;aspect=fixed;image=https://cdn4.iconfinder.com/data/icons/essentials-72/24/039_-_Cross-128.png" vertex="1" parent="1">
          <mxGeometry x="1806.81" y="1165.25" width="49.5" height="49.5" as="geometry" />
        </mxCell>
        <mxCell id="3lPimer0vRHufth0LN39-149" value="" style="shape=image;html=1;verticalAlign=top;verticalLabelPosition=bottom;labelBackgroundColor=#ffffff;imageAspect=0;aspect=fixed;image=https://cdn2.iconfinder.com/data/icons/essential-web-5/50/pending-wait-time-revise-unfinish-128.png" vertex="1" parent="1">
          <mxGeometry x="1803.56" y="1090" width="56" height="56" as="geometry" />
        </mxCell>
        <mxCell id="3lPimer0vRHufth0LN39-150" value="" style="edgeStyle=orthogonalEdgeStyle;rounded=0;orthogonalLoop=1;jettySize=auto;html=1;" edge="1" parent="1" source="3lPimer0vRHufth0LN39-80" target="3lPimer0vRHufth0LN39-95">
          <mxGeometry relative="1" as="geometry" />
        </mxCell>
        <mxCell id="3lPimer0vRHufth0LN39-151" value="Touch for best route" style="shape=callout;whiteSpace=wrap;html=1;perimeter=calloutPerimeter;position2=0.46;" vertex="1" parent="1">
          <mxGeometry x="1390.8400000000001" y="956" width="74.85" height="70" as="geometry" />
        </mxCell>
      </root>
    </mxGraphModel>
  </diagram>
</mxfile>
